<svg xmlns="http://www.w3.org/2000/svg" xmlns:xlink="http://www.w3.org/1999/xlink" width="500" zoomAndPan="magnify" viewBox="0 0 375 374.999991" height="500" preserveAspectRatio="xMidYMid meet" version="1.0"><defs><g/><clipPath id="b494e6ff21"><path d="M 92.113281 90.816406 L 279.613281 90.816406 L 279.613281 278 L 92.113281 278 Z M 92.113281 90.816406 " clip-rule="nonzero"/></clipPath></defs><g clip-path="url(#b494e6ff21)"><path fill="#ff3131" d="M 185.699219 277.988281 C 133.996094 277.988281 92.113281 235.816406 92.113281 184.402344 C 92.113281 132.988281 133.996094 90.816406 185.699219 90.816406 C 237.402344 90.816406 279.285156 132.699219 279.285156 184.402344 C 279.285156 236.105469 237.113281 277.988281 185.699219 277.988281 Z M 185.699219 96.59375 C 137.175781 96.59375 97.890625 135.875 97.890625 184.402344 C 97.890625 232.929688 137.175781 272.210938 185.699219 272.210938 C 234.226562 272.210938 273.507812 232.929688 273.507812 184.402344 C 273.507812 135.875 233.9375 96.59375 185.699219 96.59375 Z M 185.699219 96.59375 " fill-opacity="1" fill-rule="nonzero"/></g><path stroke-linecap="butt" transform="matrix(1.465975, 0, 0, 1.465975, 65.422896, 91.156364)" fill="none" stroke-linejoin="miter" d="M 0.510908 72.306736 C 0.510908 67.132067 0.942575 62.04 1.805908 57.025207 C 2.685229 52.013078 3.788377 47.230106 5.118016 42.68162 C 6.460979 38.133133 7.865227 34.010984 9.328098 30.315172 C 10.36463 27.693197 11.614332 24.927334 13.077202 22.014917 C 14.553395 19.1025 16.229433 16.331307 18.105318 13.696009 C 19.994525 11.050053 22.027621 8.85708 24.209936 7.114426 C 25.739421 5.918017 27.41546 4.91346 29.235387 4.100754 C 31.057979 3.27739 32.840602 2.864376 34.583256 2.864376 C 35.88625 2.864376 37.135951 3.149489 38.33236 3.72238 C 39.542092 4.295271 40.607936 5.206567 41.524561 6.456268 C 42.774262 8.252214 43.467061 9.952234 43.600291 11.561658 C 43.746845 13.171081 43.818789 15.006997 43.818789 17.069404 C 43.818789 18.876008 43.546999 20.911769 43.000754 23.171357 C 42.454509 25.420286 41.729736 27.74649 40.826434 30.155296 C 39.936455 32.548114 39.011835 34.850336 38.052576 37.056631 C 37.095982 39.265592 36.211332 41.186774 35.401291 42.822844 C 35.13483 43.473008 34.889686 43.979284 34.663194 44.339006 C 34.450026 44.682741 33.930427 44.935878 33.107063 45.095755 C 32.400942 44.605467 32.062537 44.171136 32.089183 43.800755 C 32.115829 43.414387 32.321004 42.841496 32.707372 42.084747 C 32.920541 41.485211 33.133709 40.94163 33.346878 40.448678 C 33.570705 39.955725 33.791867 39.438791 34.005036 38.892547 C 35.641106 35.127455 37.149274 31.271766 38.532206 27.322817 C 39.928461 23.371202 40.626588 19.195761 40.626588 14.793828 C 40.626588 12.014641 40.056362 9.986874 38.91058 8.710527 C 37.767463 7.420856 36.352556 6.776021 34.663194 6.776021 C 31.777424 6.776021 28.918299 8.190928 26.08582 11.023407 C 23.743629 13.365598 21.577302 16.238046 19.581511 19.640751 C 17.599042 23.04612 15.816419 26.696634 14.233642 30.592291 C 12.653529 34.490613 11.289249 38.372948 10.146132 42.244624 C 9.003015 46.113635 8.105042 49.678881 7.452213 52.935033 C 6.695464 56.540248 6.042635 60.483869 5.496391 64.765894 C 4.95281 69.034597 4.758294 73.3033 4.918171 77.572003 C 5.09137 81.854028 5.856113 85.818966 7.212398 89.461485 C 7.91852 91.750384 9.07496 93.751505 10.684383 95.467513 C 12.293807 97.183521 14.401512 98.041524 17.007499 98.041524 C 19.363013 98.041524 21.649247 97.428665 23.868866 96.205609 C 26.104472 94.982554 28.038978 93.743511 29.675047 92.49381 L 32.467557 90.039705 C 33.013802 89.549417 33.498761 89.136403 33.925098 88.803327 C 34.362094 88.483574 34.855046 88.051907 35.401291 87.508327 C 38.393646 84.46268 41.084901 81.150572 43.480384 77.572003 C 45.886525 74.009421 48.135455 70.297621 50.221843 66.441933 C 52.324219 62.570257 54.357315 58.754538 56.326461 54.992111 C 56.80609 54.059498 57.277726 53.422656 57.744033 53.076257 C 58.207675 52.716535 58.634012 52.538006 59.02038 52.538006 C 59.393425 52.538006 59.683868 52.676566 59.897036 52.95635 C 60.123528 53.222811 60.235442 53.489272 60.235442 53.753068 L 48.068839 75.997219 C 47.309426 77.140336 46.558006 78.251478 45.814581 79.327979 C 45.081813 80.417804 44.311742 81.510294 43.499036 82.600119 C 42.355919 84.129604 40.799788 85.957525 38.830642 88.086547 C 36.877484 90.212905 34.681847 92.293964 32.249059 94.329725 C 29.82693 96.378809 27.308875 98.065506 24.6869 99.39781 C 22.080913 100.72745 19.493579 101.390937 16.927561 101.390937 C 14.214989 101.390937 11.888786 100.72745 9.946287 99.39781 C 8.01711 98.065506 6.434333 96.312194 5.197954 94.129879 C 3.974899 91.95023 3.023634 89.56274 2.346823 86.967412 C 1.667348 84.388071 1.195713 81.814059 0.929252 79.248041 C 0.649468 76.695346 0.510908 74.379802 0.510908 72.306736 Z M 56.968632 58.741215 C 56.968632 57.598098 57.240422 56.180526 57.786666 54.491164 C 58.330246 52.804467 59.08966 51.128428 60.059577 49.465713 C 61.045482 47.802997 62.175276 46.433388 63.451624 45.356887 C 64.741294 44.264397 66.092251 43.720817 67.501829 43.720817 C 68.818145 43.720817 69.881324 44.099191 70.69403 44.85594 C 71.517394 45.615354 72.010346 46.393419 72.170223 47.190137 C 72.327435 47.976197 72.055644 48.367894 71.352188 48.367894 C 70.805943 48.367894 70.246375 48.056135 69.676149 47.429952 C 69.103258 46.806434 68.439771 46.49201 67.680357 46.49201 C 67.080821 46.49201 66.356047 46.846403 65.506037 47.549859 C 64.66935 48.255981 63.643476 49.644242 62.433743 51.719972 C 61.887499 52.596628 61.383888 53.726422 60.917581 55.109353 C 60.464598 56.49495 60.240771 57.869888 60.240771 59.239497 C 60.34469 59.132912 60.38466 59.092943 60.358014 59.119589 C 60.331367 59.146235 60.424629 59.047645 60.637797 58.821153 L 61.295956 57.843242 C 61.735616 57.193077 62.241892 56.348396 62.812118 55.309199 C 63.385009 54.272666 63.971223 53.22814 64.568095 52.178284 C 65.167632 51.115105 65.711212 50.217132 66.204164 49.484365 C 66.697117 48.740939 67.075491 48.367894 67.341952 48.367894 C 68.325193 48.367894 68.898084 48.727616 69.05796 49.444396 C 69.217837 50.150517 69.281787 51.021844 69.255141 52.058377 C 69.228495 53.081586 69.32975 54.11279 69.556242 55.149323 C 69.875995 56.625516 70.374277 57.704682 71.051087 58.381493 C 71.743885 59.060968 72.521951 59.399373 73.385284 59.399373 C 74.914769 59.399373 76.604131 58.474754 78.453369 56.625516 C 79.223441 55.922059 79.769686 55.335845 80.089439 54.872203 C 80.41985 54.405897 80.859511 53.872975 81.405755 53.276103 C 81.778801 52.729858 82.263759 52.458068 82.860632 52.458068 C 83.460169 52.458068 83.718636 52.961679 83.638697 53.97423 C 83.558759 54.970794 82.490251 56.481627 80.427844 58.5014 L 77.97374 60.457223 C 76.390962 61.547047 74.861477 62.093292 73.385284 62.093292 C 72.028998 62.093292 70.845912 61.688272 69.836026 60.875566 C 68.823474 60.052202 68.045409 59.039651 67.501829 57.843242 C 66.955584 56.646833 66.683794 55.477069 66.683794 54.331288 C 66.310749 54.611072 65.879082 55.215938 65.38613 56.148551 C 64.893177 57.065176 64.36292 58.05641 63.790029 59.119589 C 63.219803 60.185433 62.633589 61.107387 62.034052 61.893447 C 61.43718 62.676841 60.837643 63.071203 60.240771 63.071203 C 58.711285 63.071203 57.778673 62.716811 57.445596 62.013354 C 57.128508 61.307233 56.968632 60.217408 56.968632 58.741215 Z M 84.989654 60.377284 C 83.846537 60.377284 83.041825 59.804394 82.578183 58.661276 C 82.111877 57.518159 81.906702 56.100588 81.957329 54.411226 C 82.023945 52.724529 82.245107 51.035167 82.618152 49.345805 C 83.001856 47.656444 83.481485 46.238872 84.054376 45.095755 C 84.624602 43.952638 85.210816 43.379747 85.807689 43.379747 C 86.846886 43.379747 87.457081 43.614233 87.643604 44.077875 C 87.843449 44.544181 87.80348 45.268955 87.523696 46.252195 C 87.257236 47.224777 86.945476 48.461155 86.585754 49.963995 C 86.228697 51.466834 86.047503 53.249457 86.047503 55.309199 C 86.167411 55.202615 86.255343 55.122676 86.308635 55.069384 C 86.361927 55.018757 86.412555 54.965465 86.465847 54.912172 L 90.297554 48.447832 C 90.63063 47.901588 91.080949 47.184808 91.653839 46.292164 C 92.22673 45.388862 92.850249 44.570827 93.529724 43.840724 C 94.206534 43.094634 94.872686 42.721589 95.522851 42.721589 C 96.785875 42.721589 97.60391 43.366424 97.976955 44.656095 C 98.363324 45.935107 98.555175 47.224777 98.555175 48.527771 C 99.154712 48.421186 99.884815 47.922905 100.750813 47.030261 C 101.627469 46.126958 102.418858 45.348893 103.124979 44.696064 C 103.508682 44.259068 103.849752 43.880694 104.142859 43.560941 C 104.446625 43.227864 104.81967 42.948081 105.25933 42.721589 C 105.80291 42.455128 106.295863 42.324562 106.735523 42.324562 C 107.279103 42.324562 107.740081 42.54306 108.110461 42.982721 C 108.496829 43.419716 108.715327 44.224428 108.768619 45.394191 C 108.821912 46.566619 108.795266 47.914911 108.688681 49.444396 C 108.584761 50.960558 108.45686 52.484714 108.310307 54.014199 C 108.177076 55.530362 108.110461 56.860001 108.110461 58.003118 C 108.110461 60.515844 108.318301 62.279815 108.72865 63.289701 C 109.141665 64.286265 109.701232 64.784547 110.404689 64.784547 C 111.217395 64.784547 112.128691 64.246296 113.138577 63.169794 C 114.148464 62.079969 115.153021 60.795628 116.149585 59.319435 C 117.162136 57.843242 118.025469 56.508273 118.744913 55.309199 C 119.115294 54.712327 119.48301 54.11279 119.840067 53.515918 C 120.19979 52.916381 120.81265 52.617945 121.675983 52.617945 C 121.835859 52.617945 122.009059 52.729858 122.195581 52.95635 C 122.395427 53.169519 122.494017 53.409333 122.494017 53.67313 C 122.494017 54.006206 122.328812 54.472512 121.995736 55.069384 C 121.675983 55.668921 121.337577 56.255135 120.977855 56.825361 C 120.631456 57.398252 120.346343 57.851236 120.119851 58.181647 C 119.906683 58.554692 119.714831 58.879774 119.541631 59.159558 C 119.381755 59.426019 119.168586 59.777747 118.90479 60.217408 C 118.691621 60.550484 118.470459 60.835597 118.246632 61.075412 C 118.033463 61.315226 117.785654 61.653632 117.508535 62.093292 C 116.469338 63.622777 115.22763 64.957746 113.778083 66.103528 C 112.339195 67.246645 110.94294 67.816871 109.586654 67.816871 C 108.829905 67.816871 108.091809 67.571727 107.372365 67.078775 C 106.668908 66.588487 106.096017 65.743806 105.656357 64.547397 C 104.899608 62.538282 104.534557 60.417253 104.561203 58.181647 C 104.587849 55.948705 104.761048 53.766391 105.078137 51.640033 C 105.411213 49.511011 105.579083 47.656444 105.579083 46.073666 C 105.032838 46.460035 104.366686 47.091547 103.583291 47.968203 C 102.797232 48.834201 101.99252 49.638912 101.169156 50.382338 C 100.359115 51.115105 99.567727 51.480157 98.79499 51.480157 C 97.545289 51.480157 96.687285 50.88062 96.220978 49.684211 C 95.757336 48.487802 95.522851 47.283399 95.522851 46.073666 C 94.606226 46.673203 93.721576 47.736382 92.871566 49.265867 C 92.032214 50.795352 91.187533 52.404776 90.337523 54.094138 C 89.498171 55.780835 88.65349 57.238376 87.80348 58.461431 C 86.966793 59.684486 86.082143 60.323992 85.14953 60.377284 Z M 125.600951 67.318589 C 124.508461 67.318589 123.538544 66.966861 122.688534 66.26074 C 121.849182 65.557283 121.212341 64.824516 120.77268 64.067767 C 119.802763 62.205206 119.243195 60.012233 119.096642 57.48352 C 118.963411 54.944148 119.115294 52.644591 119.554954 50.582184 C 119.661539 49.982647 119.808092 49.265867 119.994615 48.426516 C 120.19446 47.576505 120.479573 46.825086 120.852619 46.172257 C 121.238987 45.508769 121.702629 45.175693 122.248873 45.175693 C 123.498575 45.175693 124.111435 45.602031 124.084789 46.452041 C 124.058143 47.291392 123.823657 48.599715 123.386661 50.382338 C 122.960324 52.151638 122.747155 54.41922 122.747155 57.185083 C 122.747155 58.008447 122.85374 58.994353 123.066908 60.13747 C 123.280077 61.280587 123.618482 62.293138 124.084789 63.169794 C 124.548431 64.033127 125.134644 64.467458 125.838101 64.467458 C 126.717422 64.467458 127.713985 64.086419 128.830456 63.32967 C 129.949592 62.556934 130.978131 61.701595 131.924067 60.755659 C 132.880661 59.799064 133.552142 59.074291 133.938511 58.581338 C 134.045095 58.474754 134.343531 58.109703 134.836484 57.48352 C 135.329436 56.860001 135.912985 56.15388 136.592461 55.370485 C 137.269271 54.571103 137.935423 53.872975 138.585588 53.276103 C 139.238417 52.676566 139.758015 52.37813 140.141719 52.37813 C 140.528087 52.37813 140.719939 52.703212 140.719939 53.356041 C 140.719939 53.739745 140.461472 54.325959 139.941873 55.109353 C 139.424939 55.895413 138.80675 56.726771 138.087306 57.603427 C 137.383849 58.469425 136.691051 59.287459 136.014241 60.057531 C 135.334765 60.816945 134.82849 61.360525 134.498078 61.693601 C 133.845249 62.34643 133.067184 63.124496 132.163881 64.027798 C 131.271238 64.917777 130.280003 65.690514 129.190178 66.340678 C 128.100354 66.993507 126.903944 67.318589 125.600951 67.318589 Z M 122.98697 34.882311 C 122.98697 33.965686 123.232114 33.166303 123.725067 32.489493 C 124.218019 31.796694 124.761599 31.450295 125.361136 31.450295 C 126.011301 31.450295 126.557545 31.86331 126.997206 32.689338 C 127.753954 34.2055 127.847216 35.388586 127.274325 36.238597 C 126.704099 37.077948 126.005971 37.496292 125.179943 37.496292 C 124.649686 37.496292 124.151404 37.283123 123.685097 36.856786 C 123.218791 36.41979 122.98697 35.758967 122.98697 34.882311 Z M 137.605012 60.71569 C 137.605012 57.989795 137.764888 55.050732 138.084641 51.8985 C 138.417717 48.732945 138.854713 45.602031 139.400958 42.503091 C 139.947203 39.390828 140.544075 36.577002 141.196904 34.064276 C 141.474023 33.254235 141.748478 32.342939 142.014939 31.330388 C 142.292058 30.320501 142.646451 29.449174 143.070124 28.719072 C 143.509784 27.986304 144.088004 27.621253 144.807448 27.621253 C 145.457613 27.621253 145.865298 27.866397 146.02251 28.359349 C 146.182386 28.838979 146.195709 29.422528 146.062479 30.115326 C 145.929249 30.792137 145.75072 31.41832 145.524228 31.991211 C 145.311059 32.561437 145.177829 32.953134 145.127201 33.166303 C 144.687541 34.802373 144.181265 37.024656 143.611039 39.830489 C 143.038148 42.636321 142.491904 45.700621 141.97497 49.026052 C 141.455371 52.351484 141.05568 55.650269 140.775896 58.919744 C 140.5121 62.17856 140.458807 65.130946 140.618684 67.776902 C 140.789219 70.425523 141.228879 72.45329 141.935001 73.862868 C 142.864949 73.369915 143.629691 72.631818 144.229228 71.648578 C 144.826101 70.675996 145.345699 69.727395 145.78536 68.794782 C 147.035061 66.401964 148.258116 63.867921 149.454526 61.195319 C 150.650935 58.522717 151.90863 56.01532 153.224946 53.67313 C 153.651284 52.809796 154.109596 52.37813 154.602549 52.37813 C 154.826376 52.37813 155.007569 52.471391 155.1408 52.657914 C 155.27403 52.841772 155.340646 53.049611 155.340646 53.276103 C 155.340646 53.435979 155.119483 53.952913 154.682487 54.832234 C 154.242827 55.695567 153.789843 56.59354 153.323537 57.523489 C 152.873218 58.442779 152.566788 59.039651 152.406912 59.319435 C 151.860667 60.462552 151.242478 61.800185 150.552344 63.32967 C 149.872869 64.845833 149.209382 66.340678 148.556552 67.816871 C 147.906388 69.293064 147.280205 70.54543 146.680668 71.56864 C 146.403549 72.0083 146.030504 72.591849 145.564197 73.324617 C 145.113878 74.068042 144.612932 74.712878 144.069352 75.259122 C 143.523107 75.805367 142.899589 76.077157 142.193468 76.077157 C 141.103643 76.077157 140.237645 75.530912 139.600804 74.441088 C 138.974621 73.351263 138.521637 71.986983 138.244518 70.350914 C 137.978057 68.714844 137.804857 67.025482 137.724919 65.285493 C 137.644981 63.542839 137.605012 62.018683 137.605012 60.71569 Z M 155.916201 65.125617 C 156.726242 64.899125 157.456345 64.174351 158.109174 62.951296 C 158.775326 61.725576 159.238968 60.329321 159.505428 58.759867 C 159.785212 57.179754 159.851828 55.722213 159.705274 54.392574 C 159.572044 53.049611 159.1537 52.130321 158.447579 51.640033 C 158.274379 52.236906 157.970614 53.094909 157.530954 54.214045 C 157.104616 55.330516 156.686273 56.5589 156.273258 57.904528 C 155.876232 59.234167 155.601777 60.537161 155.455224 61.813508 C 155.321993 63.089856 155.476541 64.193004 155.916201 65.125617 Z M 151.826027 62.351759 C 151.826027 61.634979 151.97258 60.582459 152.263023 59.199527 C 152.569453 57.803273 152.99579 56.308427 153.542035 54.712327 C 154.085615 53.102903 154.698475 51.578747 155.375285 50.142523 C 156.054761 48.692976 156.784863 47.504561 157.570923 46.571948 C 158.367641 45.642 159.180346 45.175693 160.00371 45.175693 C 160.549955 45.175693 160.928329 45.420837 161.141498 45.91379 C 161.354667 46.406742 161.407959 46.819757 161.301375 47.150168 C 161.19479 47.416629 160.989615 47.688419 160.683185 47.968203 C 160.390078 48.234664 160.136941 48.5331 159.923772 48.866176 C 160.030356 49.239221 160.296817 49.657565 160.723155 50.123871 C 161.16015 50.587513 161.599811 51.208367 162.039471 51.978439 C 162.479131 52.737852 162.764245 53.766391 162.897475 55.069384 C 163.030705 56.375042 162.876158 58.088386 162.439162 60.217408 C 161.839625 63.049887 160.88836 65.178909 159.585367 66.60181 C 158.282373 68.011387 157.006026 68.714844 155.756324 68.714844 C 154.717127 68.714844 153.800502 68.184587 153.001119 67.118744 C 152.217724 66.055565 151.826027 64.467458 151.826027 62.351759 Z M 151.826027 62.351759 " stroke="#fffef9" stroke-width="6.128468" stroke-opacity="1" stroke-miterlimit="4"/><g fill="#0cc0df" fill-opacity="1"><g transform="translate(67.369895, 189.376706)"><g><path d="M -1.203125 7.78125 C -1.203125 0.195312 -0.5625 -7.265625 0.71875 -14.609375 C 2 -21.960938 3.613281 -28.972656 5.5625 -35.640625 C 7.519531 -42.304688 9.578125 -48.351562 11.734375 -53.78125 C 13.253906 -57.613281 15.09375 -61.664062 17.25 -65.9375 C 19.40625 -70.207031 21.859375 -74.28125 24.609375 -78.15625 C 27.367188 -82.03125 30.34375 -85.242188 33.53125 -87.796875 C 35.769531 -89.554688 38.226562 -91.035156 40.90625 -92.234375 C 43.582031 -93.429688 46.195312 -94.03125 48.75 -94.03125 C 50.664062 -94.03125 52.5 -93.609375 54.25 -92.765625 C 56.007812 -91.929688 57.570312 -90.597656 58.9375 -88.765625 C 60.769531 -86.128906 61.785156 -83.628906 61.984375 -81.265625 C 62.179688 -78.910156 62.28125 -76.21875 62.28125 -73.1875 C 62.28125 -70.550781 61.878906 -67.578125 61.078125 -64.265625 C 60.285156 -60.953125 59.226562 -57.535156 57.90625 -54.015625 C 56.59375 -50.503906 55.238281 -47.128906 53.84375 -43.890625 C 52.445312 -40.660156 51.148438 -37.847656 49.953125 -35.453125 C 49.546875 -34.492188 49.179688 -33.753906 48.859375 -33.234375 C 48.546875 -32.710938 47.789062 -32.332031 46.59375 -32.09375 C 45.550781 -32.8125 45.050781 -33.453125 45.09375 -34.015625 C 45.132812 -34.578125 45.4375 -35.414062 46 -36.53125 C 46.3125 -37.40625 46.628906 -38.203125 46.953125 -38.921875 C 47.273438 -39.640625 47.59375 -40.398438 47.90625 -41.203125 C 50.300781 -46.710938 52.515625 -52.363281 54.546875 -58.15625 C 56.585938 -63.945312 57.609375 -70.078125 57.609375 -76.546875 C 57.609375 -80.617188 56.769531 -83.59375 55.09375 -85.46875 C 53.414062 -87.34375 51.34375 -88.28125 48.875 -88.28125 C 44.632812 -88.28125 40.441406 -86.203125 36.296875 -82.046875 C 32.859375 -78.617188 29.679688 -74.40625 26.765625 -69.40625 C 23.859375 -64.414062 21.242188 -59.066406 18.921875 -53.359375 C 16.609375 -47.648438 14.613281 -41.960938 12.9375 -36.296875 C 11.257812 -30.628906 9.941406 -25.398438 8.984375 -20.609375 C 7.867188 -15.335938 6.910156 -9.566406 6.109375 -3.296875 C 5.304688 2.972656 5.023438 9.242188 5.265625 15.515625 C 5.503906 21.785156 6.625 27.59375 8.625 32.9375 C 9.664062 36.289062 11.363281 39.222656 13.71875 41.734375 C 16.070312 44.253906 19.164062 45.515625 23 45.515625 C 26.4375 45.515625 29.789062 44.613281 33.0625 42.8125 C 36.332031 41.019531 39.164062 39.207031 41.5625 37.375 L 45.640625 33.78125 C 46.429688 33.0625 47.144531 32.460938 47.78125 31.984375 C 48.425781 31.503906 49.148438 30.863281 49.953125 30.0625 C 54.335938 25.59375 58.285156 20.742188 61.796875 15.515625 C 65.316406 10.285156 68.613281 4.835938 71.6875 -0.828125 C 74.757812 -6.503906 77.734375 -12.097656 80.609375 -17.609375 C 81.328125 -18.960938 82.023438 -19.898438 82.703125 -20.421875 C 83.390625 -20.941406 84.007812 -21.203125 84.5625 -21.203125 C 85.125 -21.203125 85.5625 -21 85.875 -20.59375 C 86.195312 -20.195312 86.359375 -19.800781 86.359375 -19.40625 L 68.515625 13.171875 C 67.398438 14.847656 66.300781 16.484375 65.21875 18.078125 C 64.144531 19.679688 63.007812 21.28125 61.8125 22.875 C 60.132812 25.113281 57.859375 27.789062 54.984375 30.90625 C 52.109375 34.019531 48.890625 37.070312 45.328125 40.0625 C 41.773438 43.0625 38.082031 45.535156 34.25 47.484375 C 30.425781 49.441406 26.632812 50.421875 22.875 50.421875 C 18.882812 50.421875 15.472656 49.441406 12.640625 47.484375 C 9.804688 45.535156 7.488281 42.960938 5.6875 39.765625 C 3.894531 36.566406 2.5 33.070312 1.5 29.28125 C 0.5 25.488281 -0.195312 21.71875 -0.59375 17.96875 C -1 14.21875 -1.203125 10.820312 -1.203125 7.78125 Z M -1.203125 7.78125 "/></g></g></g><g fill="#0cc0df" fill-opacity="1"><g transform="translate(148.936577, 189.376706)"><g><path d="M 0 -12.09375 C 0 -13.769531 0.394531 -15.847656 1.1875 -18.328125 C 1.988281 -20.804688 3.109375 -23.257812 4.546875 -25.6875 C 5.984375 -28.125 7.640625 -30.140625 9.515625 -31.734375 C 11.398438 -33.335938 13.378906 -34.140625 15.453125 -34.140625 C 17.367188 -34.140625 18.925781 -33.578125 20.125 -32.453125 C 21.320312 -31.335938 22.039062 -30.203125 22.28125 -29.046875 C 22.519531 -27.890625 22.117188 -27.3125 21.078125 -27.3125 C 20.285156 -27.3125 19.46875 -27.769531 18.625 -28.6875 C 17.789062 -29.601562 16.8125 -30.0625 15.6875 -30.0625 C 14.8125 -30.0625 13.753906 -29.539062 12.515625 -28.5 C 11.273438 -27.46875 9.78125 -25.4375 8.03125 -22.40625 C 7.226562 -21.125 6.488281 -19.460938 5.8125 -17.421875 C 5.132812 -15.390625 4.796875 -13.375 4.796875 -11.375 C 4.953125 -11.539062 5.007812 -11.601562 4.96875 -11.5625 C 4.925781 -11.519531 5.066406 -11.660156 5.390625 -11.984375 L 6.34375 -13.421875 C 6.988281 -14.378906 7.726562 -15.613281 8.5625 -17.125 C 9.40625 -18.644531 10.265625 -20.179688 11.140625 -21.734375 C 12.015625 -23.296875 12.8125 -24.613281 13.53125 -25.6875 C 14.25 -26.769531 14.8125 -27.3125 15.21875 -27.3125 C 16.65625 -27.3125 17.492188 -26.789062 17.734375 -25.75 C 17.972656 -24.71875 18.070312 -23.441406 18.03125 -21.921875 C 17.988281 -20.398438 18.128906 -18.882812 18.453125 -17.375 C 18.929688 -15.21875 19.664062 -13.640625 20.65625 -12.640625 C 21.65625 -11.640625 22.796875 -11.140625 24.078125 -11.140625 C 26.316406 -11.140625 28.789062 -12.5 31.5 -15.21875 C 32.613281 -16.25 33.410156 -17.101562 33.890625 -17.78125 C 34.367188 -18.46875 35.007812 -19.25 35.8125 -20.125 C 36.375 -20.925781 37.09375 -21.328125 37.96875 -21.328125 C 38.84375 -21.328125 39.21875 -20.585938 39.09375 -19.109375 C 38.976562 -17.628906 37.40625 -15.410156 34.375 -12.453125 L 30.78125 -9.578125 C 28.46875 -7.984375 26.234375 -7.1875 24.078125 -7.1875 C 22.078125 -7.1875 20.335938 -7.785156 18.859375 -8.984375 C 17.390625 -10.179688 16.253906 -11.65625 15.453125 -13.40625 C 14.648438 -15.164062 14.25 -16.882812 14.25 -18.5625 C 13.695312 -18.164062 13.0625 -17.285156 12.34375 -15.921875 C 11.625 -14.566406 10.84375 -13.109375 10 -11.546875 C 9.164062 -9.992188 8.304688 -8.640625 7.421875 -7.484375 C 6.546875 -6.328125 5.671875 -5.75 4.796875 -5.75 C 2.554688 -5.75 1.195312 -6.265625 0.71875 -7.296875 C 0.238281 -8.335938 0 -9.9375 0 -12.09375 Z M 0 -12.09375 "/></g></g></g><g fill="#0cc0df" fill-opacity="1"><g transform="translate(183.671283, 189.376706)"><g><path d="M 6.34375 -9.703125 C 4.664062 -9.703125 3.488281 -10.539062 2.8125 -12.21875 C 2.132812 -13.894531 1.832031 -15.96875 1.90625 -18.4375 C 1.988281 -20.914062 2.3125 -23.394531 2.875 -25.875 C 3.4375 -28.351562 4.132812 -30.425781 4.96875 -32.09375 C 5.8125 -33.769531 6.671875 -34.609375 7.546875 -34.609375 C 9.066406 -34.609375 9.960938 -34.269531 10.234375 -33.59375 C 10.515625 -32.914062 10.457031 -31.859375 10.0625 -30.421875 C 9.664062 -28.984375 9.207031 -27.164062 8.6875 -24.96875 C 8.164062 -22.78125 7.90625 -20.164062 7.90625 -17.125 C 8.0625 -17.289062 8.179688 -17.410156 8.265625 -17.484375 C 8.347656 -17.566406 8.425781 -17.648438 8.5 -17.734375 L 14.140625 -27.1875 C 14.617188 -27.988281 15.273438 -29.046875 16.109375 -30.359375 C 16.953125 -31.679688 17.867188 -32.878906 18.859375 -33.953125 C 19.859375 -35.035156 20.835938 -35.578125 21.796875 -35.578125 C 23.640625 -35.578125 24.835938 -34.640625 25.390625 -32.765625 C 25.953125 -30.890625 26.234375 -28.992188 26.234375 -27.078125 C 27.109375 -27.234375 28.179688 -27.96875 29.453125 -29.28125 C 30.734375 -30.601562 31.894531 -31.742188 32.9375 -32.703125 C 33.5 -33.335938 34 -33.894531 34.4375 -34.375 C 34.875 -34.851562 35.410156 -35.253906 36.046875 -35.578125 C 36.847656 -35.972656 37.566406 -36.171875 38.203125 -36.171875 C 39.003906 -36.171875 39.6875 -35.851562 40.25 -35.21875 C 40.800781 -34.570312 41.117188 -33.390625 41.203125 -31.671875 C 41.285156 -29.960938 41.242188 -27.988281 41.078125 -25.75 C 40.921875 -23.519531 40.742188 -21.285156 40.546875 -19.046875 C 40.347656 -16.804688 40.25 -14.847656 40.25 -13.171875 C 40.25 -9.503906 40.546875 -6.929688 41.140625 -5.453125 C 41.742188 -3.972656 42.5625 -3.234375 43.59375 -3.234375 C 44.789062 -3.234375 46.128906 -4.03125 47.609375 -5.625 C 49.085938 -7.226562 50.566406 -9.109375 52.046875 -11.265625 C 53.523438 -13.421875 54.78125 -15.375 55.8125 -17.125 C 56.375 -18.007812 56.914062 -18.890625 57.4375 -19.765625 C 57.957031 -20.640625 58.851562 -21.078125 60.125 -21.078125 C 60.363281 -21.078125 60.625 -20.914062 60.90625 -20.59375 C 61.1875 -20.28125 61.328125 -19.925781 61.328125 -19.53125 C 61.328125 -19.050781 61.085938 -18.367188 60.609375 -17.484375 C 60.128906 -16.609375 59.628906 -15.75 59.109375 -14.90625 C 58.585938 -14.070312 58.171875 -13.414062 57.859375 -12.9375 C 57.535156 -12.375 57.253906 -11.894531 57.015625 -11.5 C 56.773438 -11.101562 56.457031 -10.582031 56.0625 -9.9375 C 55.738281 -9.457031 55.414062 -9.035156 55.09375 -8.671875 C 54.78125 -8.316406 54.421875 -7.820312 54.015625 -7.1875 C 52.503906 -4.945312 50.6875 -2.988281 48.5625 -1.3125 C 46.445312 0.363281 44.394531 1.203125 42.40625 1.203125 C 41.28125 1.203125 40.195312 0.84375 39.15625 0.125 C 38.125 -0.59375 37.289062 -1.832031 36.65625 -3.59375 C 35.53125 -6.550781 34.988281 -9.664062 35.03125 -12.9375 C 35.070312 -16.207031 35.332031 -19.398438 35.8125 -22.515625 C 36.289062 -25.628906 36.53125 -28.34375 36.53125 -30.65625 C 35.726562 -30.101562 34.75 -29.1875 33.59375 -27.90625 C 32.4375 -26.632812 31.257812 -25.457031 30.0625 -24.375 C 28.863281 -23.300781 27.707031 -22.765625 26.59375 -22.765625 C 24.757812 -22.765625 23.5 -23.640625 22.8125 -25.390625 C 22.132812 -27.148438 21.796875 -28.90625 21.796875 -30.65625 C 20.441406 -29.78125 19.144531 -28.222656 17.90625 -25.984375 C 16.664062 -23.753906 15.425781 -21.398438 14.1875 -18.921875 C 12.957031 -16.453125 11.722656 -14.316406 10.484375 -12.515625 C 9.242188 -10.722656 7.945312 -9.785156 6.59375 -9.703125 Z M 6.34375 -9.703125 "/></g></g></g><g fill="#0cc0df" fill-opacity="1"><g transform="translate(239.606149, 189.376706)"><g><path d="M 9.9375 0.484375 C 8.34375 0.484375 6.925781 -0.0351562 5.6875 -1.078125 C 4.445312 -2.117188 3.507812 -3.195312 2.875 -4.3125 C 1.4375 -7.03125 0.617188 -10.242188 0.421875 -13.953125 C 0.222656 -17.671875 0.441406 -21.046875 1.078125 -24.078125 C 1.234375 -24.953125 1.453125 -26.007812 1.734375 -27.25 C 2.015625 -28.488281 2.429688 -29.585938 2.984375 -30.546875 C 3.546875 -31.503906 4.226562 -31.984375 5.03125 -31.984375 C 6.863281 -31.984375 7.757812 -31.363281 7.71875 -30.125 C 7.6875 -28.882812 7.347656 -26.96875 6.703125 -24.375 C 6.066406 -21.78125 5.75 -18.445312 5.75 -14.375 C 5.75 -13.175781 5.90625 -11.738281 6.21875 -10.0625 C 6.539062 -8.382812 7.039062 -6.90625 7.71875 -5.625 C 8.40625 -4.351562 9.265625 -3.71875 10.296875 -3.71875 C 11.578125 -3.71875 13.035156 -4.273438 14.671875 -5.390625 C 16.304688 -6.503906 17.820312 -7.757812 19.21875 -9.15625 C 20.625 -10.5625 21.601562 -11.625 22.15625 -12.34375 C 22.320312 -12.5 22.765625 -13.035156 23.484375 -13.953125 C 24.203125 -14.867188 25.054688 -15.90625 26.046875 -17.0625 C 27.046875 -18.226562 28.023438 -19.25 28.984375 -20.125 C 29.941406 -21 30.703125 -21.4375 31.265625 -21.4375 C 31.816406 -21.4375 32.09375 -20.957031 32.09375 -20 C 32.09375 -19.445312 31.710938 -18.585938 30.953125 -17.421875 C 30.203125 -16.265625 29.304688 -15.046875 28.265625 -13.765625 C 27.234375 -12.492188 26.21875 -11.296875 25.21875 -10.171875 C 24.21875 -9.054688 23.476562 -8.257812 23 -7.78125 C 22.039062 -6.820312 20.898438 -5.679688 19.578125 -4.359375 C 18.265625 -3.046875 16.804688 -1.910156 15.203125 -0.953125 C 13.609375 0.00390625 11.851562 0.484375 9.9375 0.484375 Z M 6.109375 -47.078125 C 6.109375 -48.429688 6.46875 -49.609375 7.1875 -50.609375 C 7.90625 -51.609375 8.703125 -52.109375 9.578125 -52.109375 C 10.535156 -52.109375 11.335938 -51.507812 11.984375 -50.3125 C 13.097656 -48.070312 13.234375 -46.332031 12.390625 -45.09375 C 11.554688 -43.851562 10.539062 -43.234375 9.34375 -43.234375 C 8.539062 -43.234375 7.800781 -43.550781 7.125 -44.1875 C 6.445312 -44.832031 6.109375 -45.796875 6.109375 -47.078125 Z M 6.109375 -47.078125 "/></g></g></g><g fill="#0cc0df" fill-opacity="1"><g transform="translate(266.914814, 189.376706)"><g><path d="M 0.234375 -9.21875 C 0.234375 -13.21875 0.472656 -17.53125 0.953125 -22.15625 C 1.429688 -26.789062 2.070312 -31.382812 2.875 -35.9375 C 3.675781 -40.488281 4.554688 -44.597656 5.515625 -48.265625 C 5.910156 -49.460938 6.304688 -50.800781 6.703125 -52.28125 C 7.109375 -53.757812 7.628906 -55.035156 8.265625 -56.109375 C 8.898438 -57.191406 9.738281 -57.734375 10.78125 -57.734375 C 11.738281 -57.734375 12.335938 -57.375 12.578125 -56.65625 C 12.816406 -55.9375 12.835938 -55.078125 12.640625 -54.078125 C 12.441406 -53.078125 12.179688 -52.15625 11.859375 -51.3125 C 11.535156 -50.476562 11.335938 -49.90625 11.265625 -49.59375 C 10.617188 -47.195312 9.875 -43.941406 9.03125 -39.828125 C 8.195312 -35.710938 7.398438 -31.21875 6.640625 -26.34375 C 5.890625 -21.476562 5.3125 -16.648438 4.90625 -11.859375 C 4.507812 -7.066406 4.429688 -2.734375 4.671875 1.140625 C 4.910156 5.015625 5.550781 7.988281 6.59375 10.0625 C 7.945312 9.34375 9.0625 8.265625 9.9375 6.828125 C 10.820312 5.390625 11.582031 3.992188 12.21875 2.640625 C 14.050781 -0.878906 15.847656 -4.59375 17.609375 -8.5 C 19.367188 -12.414062 21.207031 -16.09375 23.125 -19.53125 C 23.757812 -20.800781 24.4375 -21.4375 25.15625 -21.4375 C 25.476562 -21.4375 25.738281 -21.296875 25.9375 -21.015625 C 26.132812 -20.742188 26.234375 -20.445312 26.234375 -20.125 C 26.234375 -19.882812 25.910156 -19.125 25.265625 -17.84375 C 24.628906 -16.570312 23.972656 -15.253906 23.296875 -13.890625 C 22.617188 -12.535156 22.160156 -11.660156 21.921875 -11.265625 C 21.117188 -9.585938 20.21875 -7.628906 19.21875 -5.390625 C 18.226562 -3.148438 17.253906 -0.953125 16.296875 1.203125 C 15.335938 3.359375 14.414062 5.191406 13.53125 6.703125 C 13.132812 7.347656 12.597656 8.207031 11.921875 9.28125 C 11.242188 10.363281 10.503906 11.300781 9.703125 12.09375 C 8.898438 12.894531 7.984375 13.296875 6.953125 13.296875 C 5.347656 13.296875 4.085938 12.492188 3.171875 10.890625 C 2.253906 9.296875 1.59375 7.300781 1.1875 4.90625 C 0.789062 2.507812 0.53125 0.0351562 0.40625 -2.515625 C 0.289062 -5.066406 0.234375 -7.300781 0.234375 -9.21875 Z M 0.234375 -9.21875 "/></g></g></g><g fill="#0cc0df" fill-opacity="1"><g transform="translate(287.995187, 189.376706)"><g><path d="M 5.984375 -2.75 C 7.179688 -3.070312 8.257812 -4.128906 9.21875 -5.921875 C 10.175781 -7.722656 10.851562 -9.78125 11.25 -12.09375 C 11.65625 -14.414062 11.757812 -16.550781 11.5625 -18.5 C 11.363281 -20.457031 10.742188 -21.796875 9.703125 -22.515625 C 9.460938 -21.640625 9.019531 -20.382812 8.375 -18.75 C 7.738281 -17.113281 7.117188 -15.316406 6.515625 -13.359375 C 5.921875 -11.398438 5.523438 -9.484375 5.328125 -7.609375 C 5.128906 -5.734375 5.347656 -4.113281 5.984375 -2.75 Z M 0 -6.828125 C 0 -7.867188 0.21875 -9.40625 0.65625 -11.4375 C 1.09375 -13.476562 1.710938 -15.675781 2.515625 -18.03125 C 3.316406 -20.382812 4.210938 -22.617188 5.203125 -24.734375 C 6.203125 -26.847656 7.28125 -28.582031 8.4375 -29.9375 C 9.601562 -31.300781 10.785156 -31.984375 11.984375 -31.984375 C 12.773438 -31.984375 13.332031 -31.625 13.65625 -30.90625 C 13.976562 -30.1875 14.054688 -29.585938 13.890625 -29.109375 C 13.734375 -28.710938 13.4375 -28.3125 13 -27.90625 C 12.5625 -27.507812 12.179688 -27.070312 11.859375 -26.59375 C 12.015625 -26.03125 12.410156 -25.410156 13.046875 -24.734375 C 13.691406 -24.054688 14.332031 -23.15625 14.96875 -22.03125 C 15.613281 -20.914062 16.035156 -19.398438 16.234375 -17.484375 C 16.429688 -15.566406 16.210938 -13.050781 15.578125 -9.9375 C 14.691406 -5.789062 13.289062 -2.675781 11.375 -0.59375 C 9.457031 1.476562 7.582031 2.515625 5.75 2.515625 C 4.226562 2.515625 2.890625 1.734375 1.734375 0.171875 C 0.578125 -1.378906 0 -3.710938 0 -6.828125 Z M 0 -6.828125 "/></g></g></g><path fill="#fffef9" d="M 264.171875 249.292969 C 262.984375 250.722656 261.757812 252.121094 260.492188 253.484375 C 259.226562 254.847656 257.925781 256.175781 256.589844 257.46875 C 255.25 258.761719 253.878906 260.015625 252.472656 261.234375 C 251.066406 262.453125 249.628906 263.628906 248.15625 264.769531 C 246.6875 265.910156 245.1875 267.007812 243.65625 268.0625 C 242.125 269.121094 240.566406 270.132812 238.980469 271.105469 C 237.394531 272.078125 235.78125 273.003906 234.144531 273.886719 C 232.507812 274.773438 230.847656 275.609375 229.164062 276.402344 C 227.484375 277.195312 225.78125 277.941406 224.054688 278.640625 C 222.332031 279.339844 220.589844 279.992188 218.832031 280.597656 C 217.074219 281.199219 215.296875 281.757812 213.507812 282.261719 C 211.71875 282.769531 209.917969 283.226562 208.101562 283.636719 C 206.285156 284.046875 204.460938 284.402344 202.628906 284.710938 C 200.792969 285.019531 198.953125 285.28125 197.105469 285.488281 C 195.253906 285.695312 193.402344 285.851562 191.546875 285.960938 C 189.6875 286.066406 187.828125 286.121094 185.96875 286.125 C 184.109375 286.132812 182.25 286.085938 180.394531 285.988281 C 178.535156 285.890625 176.683594 285.746094 174.832031 285.546875 C 172.984375 285.347656 171.140625 285.097656 169.304688 284.800781 C 167.46875 284.5 165.640625 284.152344 163.824219 283.753906 C 162.007812 283.355469 160.203125 282.90625 158.410156 282.40625 C 156.617188 281.910156 154.839844 281.363281 153.078125 280.769531 C 151.316406 280.175781 149.570312 279.53125 147.84375 278.839844 C 146.117188 278.152344 144.410156 277.414062 142.722656 276.628906 C 141.035156 275.847656 139.371094 275.015625 137.730469 274.140625 C 136.089844 273.265625 134.472656 272.347656 132.878906 271.386719 C 131.289062 270.421875 129.726562 269.414062 128.1875 268.367188 C 126.652344 267.316406 125.148438 266.226562 123.671875 265.097656 C 122.195312 263.964844 120.75 262.792969 119.335938 261.585938 C 117.921875 260.375 116.546875 259.125 115.199219 257.839844 C 113.855469 256.554688 112.546875 255.234375 111.277344 253.875 C 110.003906 252.519531 108.769531 251.128906 107.574219 249.703125 L 124.992188 235.085938 C 125.917969 236.191406 126.878906 237.273438 127.867188 238.328125 C 128.855469 239.382812 129.871094 240.410156 130.917969 241.410156 C 131.960938 242.40625 133.03125 243.378906 134.128906 244.316406 C 135.226562 245.257812 136.351562 246.167969 137.496094 247.046875 C 138.644531 247.925781 139.816406 248.773438 141.007812 249.589844 C 142.203125 250.402344 143.417969 251.183594 144.65625 251.933594 C 145.890625 252.683594 147.148438 253.394531 148.421875 254.078125 C 149.699219 254.757812 150.992188 255.402344 152.304688 256.007812 C 153.613281 256.617188 154.941406 257.191406 156.28125 257.726562 C 157.625 258.265625 158.980469 258.765625 160.351562 259.226562 C 161.71875 259.6875 163.101562 260.113281 164.496094 260.5 C 165.886719 260.886719 167.289062 261.234375 168.703125 261.542969 C 170.113281 261.855469 171.53125 262.125 172.960938 262.359375 C 174.386719 262.589844 175.816406 262.785156 177.253906 262.9375 C 178.691406 263.09375 180.132812 263.207031 181.578125 263.28125 C 183.019531 263.355469 184.464844 263.394531 185.910156 263.390625 C 187.355469 263.386719 188.800781 263.34375 190.242188 263.257812 C 191.6875 263.175781 193.125 263.054688 194.5625 262.894531 C 196 262.730469 197.429688 262.53125 198.855469 262.289062 C 200.28125 262.050781 201.699219 261.773438 203.109375 261.453125 C 204.519531 261.136719 205.917969 260.78125 207.308594 260.386719 C 208.699219 259.992188 210.078125 259.5625 211.445312 259.09375 C 212.8125 258.621094 214.167969 258.117188 215.507812 257.570312 C 216.84375 257.027344 218.167969 256.449219 219.476562 255.832031 C 220.785156 255.21875 222.074219 254.566406 223.347656 253.878906 C 224.617188 253.191406 225.871094 252.472656 227.101562 251.71875 C 228.335938 250.960938 229.546875 250.171875 230.738281 249.351562 C 231.925781 248.53125 233.09375 247.679688 234.234375 246.792969 C 235.378906 245.90625 236.496094 244.992188 237.589844 244.046875 C 238.679688 243.097656 239.746094 242.125 240.785156 241.121094 C 241.824219 240.113281 242.835938 239.082031 243.820312 238.023438 C 244.804688 236.964844 245.757812 235.878906 246.679688 234.765625 Z M 264.171875 249.292969 " fill-opacity="1" fill-rule="nonzero"/><g fill="#0cc0df" fill-opacity="1"><g transform="translate(115.106552, 248.619055)"><g><path d="M 8.75 -7.390625 L 14.78125 -1.5 L 13.40625 -0.09375 L 9.078125 -4.328125 L 7.4375 -2.640625 L 11.40625 1.234375 L 10.03125 2.625 L 6.0625 -1.25 L 3.859375 1.015625 L 8.359375 5.421875 L 6.984375 6.828125 L 0.78125 0.765625 Z M 8.75 -7.390625 "/></g></g></g><g fill="#0cc0df" fill-opacity="1"><g transform="translate(133.61292, 264.254417)"><g><path d="M 2.28125 -2.75 L 4.265625 -1.609375 C 4.179688 -1.472656 4.109375 -1.300781 4.046875 -1.09375 C 3.992188 -0.882812 3.992188 -0.648438 4.046875 -0.390625 C 4.097656 -0.140625 4.226562 0.117188 4.4375 0.390625 C 4.65625 0.660156 4.988281 0.925781 5.4375 1.1875 C 5.757812 1.375 6.097656 1.519531 6.453125 1.625 C 6.816406 1.738281 7.15625 1.757812 7.46875 1.6875 C 7.78125 1.625 8.035156 1.421875 8.234375 1.078125 C 8.378906 0.816406 8.414062 0.570312 8.34375 0.34375 C 8.28125 0.113281 8.140625 -0.117188 7.921875 -0.359375 C 7.703125 -0.609375 7.441406 -0.875 7.140625 -1.15625 L 5.4375 -2.796875 C 4.832031 -3.367188 4.457031 -3.976562 4.3125 -4.625 C 4.164062 -5.28125 4.304688 -5.984375 4.734375 -6.734375 C 4.890625 -7.003906 5.117188 -7.28125 5.421875 -7.5625 C 5.722656 -7.851562 6.097656 -8.082031 6.546875 -8.25 C 7.003906 -8.425781 7.539062 -8.472656 8.15625 -8.390625 C 8.78125 -8.316406 9.492188 -8.050781 10.296875 -7.59375 C 11.046875 -7.164062 11.609375 -6.703125 11.984375 -6.203125 C 12.367188 -5.703125 12.609375 -5.195312 12.703125 -4.6875 C 12.796875 -4.1875 12.796875 -3.71875 12.703125 -3.28125 C 12.609375 -2.851562 12.472656 -2.488281 12.296875 -2.1875 L 10.3125 -3.328125 C 10.363281 -3.441406 10.414062 -3.597656 10.46875 -3.796875 C 10.519531 -3.992188 10.53125 -4.210938 10.5 -4.453125 C 10.46875 -4.691406 10.347656 -4.9375 10.140625 -5.1875 C 9.941406 -5.445312 9.617188 -5.707031 9.171875 -5.96875 C 8.898438 -6.125 8.609375 -6.238281 8.296875 -6.3125 C 7.992188 -6.394531 7.703125 -6.398438 7.421875 -6.328125 C 7.148438 -6.265625 6.929688 -6.082031 6.765625 -5.78125 C 6.617188 -5.53125 6.5625 -5.296875 6.59375 -5.078125 C 6.625 -4.867188 6.707031 -4.6875 6.84375 -4.53125 C 6.976562 -4.382812 7.101562 -4.257812 7.21875 -4.15625 L 9.28125 -2.171875 C 9.675781 -1.804688 10.015625 -1.414062 10.296875 -1 C 10.585938 -0.582031 10.753906 -0.132812 10.796875 0.34375 C 10.835938 0.832031 10.691406 1.367188 10.359375 1.953125 C 10.015625 2.546875 9.625 2.984375 9.1875 3.265625 C 8.757812 3.554688 8.316406 3.722656 7.859375 3.765625 C 7.398438 3.804688 6.953125 3.78125 6.515625 3.6875 C 6.085938 3.601562 5.707031 3.488281 5.375 3.34375 C 5.039062 3.195312 4.789062 3.070312 4.625 2.96875 C 3.894531 2.550781 3.320312 2.128906 2.90625 1.703125 C 2.5 1.273438 2.203125 0.847656 2.015625 0.421875 C 1.835938 0.00390625 1.75 -0.398438 1.75 -0.796875 C 1.75 -1.191406 1.800781 -1.554688 1.90625 -1.890625 C 2.007812 -2.222656 2.132812 -2.507812 2.28125 -2.75 Z M 2.28125 -2.75 "/></g></g></g><g fill="#0cc0df" fill-opacity="1"><g transform="translate(155.54786, 274.763321)"><g><path d="M 4.421875 -3.0625 L 3.34375 0.90625 L 1.0625 0.28125 L 4.046875 -10.734375 L 9.078125 -9.375 C 10.140625 -9.082031 10.882812 -8.535156 11.3125 -7.734375 C 11.738281 -6.941406 11.800781 -6.003906 11.5 -4.921875 C 11.457031 -4.722656 11.367188 -4.484375 11.234375 -4.203125 C 11.097656 -3.929688 10.914062 -3.65625 10.6875 -3.375 C 10.46875 -3.09375 10.1875 -2.84375 9.84375 -2.625 C 9.5 -2.414062 9.097656 -2.273438 8.640625 -2.203125 C 8.179688 -2.140625 7.65625 -2.1875 7.0625 -2.34375 Z M 5.8125 -8.203125 L 4.9375 -4.96875 L 7.078125 -4.390625 C 7.585938 -4.253906 7.984375 -4.242188 8.265625 -4.359375 C 8.554688 -4.484375 8.773438 -4.664062 8.921875 -4.90625 C 9.066406 -5.15625 9.171875 -5.398438 9.234375 -5.640625 C 9.378906 -6.171875 9.332031 -6.597656 9.09375 -6.921875 C 8.851562 -7.253906 8.375 -7.515625 7.65625 -7.703125 Z M 5.8125 -8.203125 "/></g></g></g><g fill="#0cc0df" fill-opacity="1"><g transform="translate(179.416788, 279.423163)"><g><path d="M 4.421875 -11.390625 L 7.171875 -11.375 L 11.140625 0.046875 L 8.5625 0.03125 L 7.828125 -2.328125 L 3.640625 -2.34375 L 2.828125 0.015625 L 0.328125 0 Z M 5.75 -8.796875 L 4.265625 -4.296875 L 7.3125 -4.28125 L 5.78125 -8.796875 Z M 5.75 -8.796875 "/></g></g></g><g fill="#0cc0df" fill-opacity="1"><g transform="translate(204.613934, 277.692797)"><g><path d="M 2.21875 -5.1875 L 3.359375 -0.890625 L 1.0625 -0.28125 L -1.859375 -11.3125 L 3.75 -12.796875 C 4.488281 -12.992188 5.113281 -13.035156 5.625 -12.921875 C 6.144531 -12.804688 6.566406 -12.609375 6.890625 -12.328125 C 7.222656 -12.046875 7.476562 -11.742188 7.65625 -11.421875 C 7.84375 -11.109375 7.96875 -10.832031 8.03125 -10.59375 C 8.1875 -9.988281 8.1875 -9.40625 8.03125 -8.84375 C 7.875 -8.289062 7.539062 -7.847656 7.03125 -7.515625 C 7.375 -7.472656 7.664062 -7.390625 7.90625 -7.265625 C 8.15625 -7.148438 8.378906 -6.929688 8.578125 -6.609375 C 8.773438 -6.285156 8.96875 -5.78125 9.15625 -5.09375 C 9.289062 -4.5625 9.40625 -4.144531 9.5 -3.84375 C 9.59375 -3.550781 9.691406 -3.347656 9.796875 -3.234375 C 9.910156 -3.117188 10.054688 -3.050781 10.234375 -3.03125 L 10.3125 -2.734375 L 7.78125 -2.0625 C 7.632812 -2.300781 7.492188 -2.578125 7.359375 -2.890625 C 7.222656 -3.210938 7.078125 -3.660156 6.921875 -4.234375 C 6.785156 -4.734375 6.648438 -5.125 6.515625 -5.40625 C 6.378906 -5.695312 6.164062 -5.875 5.875 -5.9375 C 5.582031 -6.007812 5.15625 -5.96875 4.59375 -5.8125 Z M 0.9375 -10.015625 L 1.71875 -7.046875 L 4.421875 -7.765625 C 5.015625 -7.921875 5.429688 -8.15625 5.671875 -8.46875 C 5.910156 -8.78125 5.957031 -9.207031 5.8125 -9.75 C 5.757812 -9.945312 5.660156 -10.144531 5.515625 -10.34375 C 5.367188 -10.550781 5.15625 -10.703125 4.875 -10.796875 C 4.601562 -10.898438 4.238281 -10.890625 3.78125 -10.765625 Z M 0.9375 -10.015625 "/></g></g></g><g fill="#0cc0df" fill-opacity="1"><g transform="translate(228.166313, 269.546225)"><g><path d="M -5.125 -10.203125 L 2.5 -14.5 L 3.484375 -12.75 L 1.84375 -3.34375 L 7.109375 -6.3125 L 8.09375 -4.5625 L 0.34375 -0.1875 L -0.65625 -1.953125 L 0.859375 -11.265625 L -4.140625 -8.453125 Z M -5.125 -10.203125 "/></g></g></g><g fill="#0cc0df" fill-opacity="1"><g transform="translate(247.757724, 256.623571)"><g><path d="M -4.78125 -11.25 L -2.796875 -13.15625 L 8.015625 -7.734375 L 6.15625 -5.953125 L 3.984375 -7.125 L 0.96875 -4.21875 L 2.03125 -1.96875 L 0.234375 -0.234375 Z M -2.03125 -10.3125 L 0.0625 -6.046875 L 2.25 -8.15625 L -2 -10.34375 Z M -2.03125 -10.3125 "/></g></g></g></svg>