<svg xmlns="http://www.w3.org/2000/svg" xmlns:xlink="http://www.w3.org/1999/xlink" width="500" zoomAndPan="magnify" viewBox="0 0 375 374.999991" height="500" preserveAspectRatio="xMidYMid meet" version="1.0"><defs><g/><clipPath id="00d3a9e61d"><path d="M 78.539062 78.539062 L 296.789062 78.539062 L 296.789062 296.789062 L 78.539062 296.789062 Z M 78.539062 78.539062 " clip-rule="nonzero"/></clipPath><clipPath id="5cf46eab43"><path d="M 123.503906 123.503906 L 251.753906 123.503906 L 251.753906 251.753906 L 123.503906 251.753906 Z M 123.503906 123.503906 " clip-rule="nonzero"/></clipPath><clipPath id="e7f5b75e2f"><path d="M 98.640625 194.972656 L 105.390625 194.972656 L 105.390625 201.722656 L 98.640625 201.722656 Z M 98.640625 194.972656 " clip-rule="nonzero"/></clipPath><clipPath id="66ede234fb"><path d="M 269.480469 194.972656 L 276.230469 194.972656 L 276.230469 201.722656 L 269.480469 201.722656 Z M 269.480469 194.972656 " clip-rule="nonzero"/></clipPath><clipPath id="0015f2a9f7"><path d="M 171 145.464844 L 205 145.464844 L 205 166 L 171 166 Z M 171 145.464844 " clip-rule="nonzero"/></clipPath><clipPath id="151359efd9"><path d="M 154.242188 184.710938 L 220.3125 184.710938 L 220.3125 222.714844 L 154.242188 222.714844 Z M 154.242188 184.710938 " clip-rule="nonzero"/></clipPath><clipPath id="e018109548"><path d="M 139.789062 219.707031 L 234.929688 219.707031 L 234.929688 222.714844 L 139.789062 222.714844 Z M 139.789062 219.707031 " clip-rule="nonzero"/></clipPath><clipPath id="24c14f80d2"><path d="M 162.242188 214.003906 L 212.566406 214.003906 L 212.566406 222.714844 L 162.242188 222.714844 Z M 162.242188 214.003906 " clip-rule="nonzero"/></clipPath></defs><rect x="-37.5" width="450" fill="#ffffff" y="-37.499999" height="449.999989" fill-opacity="1"/><rect x="-37.5" width="450" fill="#ffffff" y="-37.499999" height="449.999989" fill-opacity="1"/><g clip-path="url(#00d3a9e61d)"><path fill="#504f4f" d="M 187.5 296.460938 C 247.679688 296.460938 296.460938 247.679688 296.460938 187.5 C 296.460938 127.316406 247.679688 78.539062 187.5 78.539062 C 127.316406 78.539062 78.539062 127.316406 78.539062 187.5 C 78.539062 247.679688 127.316406 296.460938 187.5 296.460938 Z M 187.5 294.390625 C 246.535156 294.390625 294.402344 246.535156 294.402344 187.5 C 294.402344 128.464844 246.535156 80.605469 187.5 80.605469 C 128.464844 80.605469 80.605469 128.464844 80.605469 187.5 C 80.605469 246.535156 128.464844 294.390625 187.5 294.390625 Z M 187.5 294.390625 " fill-opacity="1" fill-rule="evenodd"/></g><g clip-path="url(#5cf46eab43)"><path fill="#504f4f" d="M 187.5 251.496094 C 222.84375 251.496094 251.496094 222.84375 251.496094 187.5 C 251.496094 152.152344 222.84375 123.503906 187.5 123.503906 C 152.152344 123.503906 123.503906 152.152344 123.503906 187.5 C 123.503906 222.84375 152.152344 251.496094 187.5 251.496094 Z M 187.5 250.28125 C 222.171875 250.28125 250.285156 222.171875 250.285156 187.5 C 250.285156 152.824219 222.171875 124.71875 187.5 124.71875 C 152.824219 124.71875 124.71875 152.824219 124.71875 187.5 C 124.71875 222.171875 152.824219 250.28125 187.5 250.28125 Z M 187.5 250.28125 " fill-opacity="1" fill-rule="evenodd"/></g><g clip-path="url(#e7f5b75e2f)"><path fill="#504f4f" d="M 105.34375 198.324219 C 105.34375 198.765625 105.257812 199.195312 105.089844 199.605469 C 104.917969 200.015625 104.675781 200.378906 104.363281 200.691406 C 104.046875 201.007812 103.683594 201.25 103.273438 201.417969 C 102.863281 201.589844 102.4375 201.675781 101.992188 201.675781 C 101.546875 201.675781 101.121094 201.589844 100.710938 201.417969 C 100.296875 201.25 99.9375 201.007812 99.621094 200.691406 C 99.308594 200.378906 99.066406 200.015625 98.894531 199.605469 C 98.726562 199.195312 98.640625 198.765625 98.640625 198.324219 C 98.640625 197.878906 98.726562 197.449219 98.894531 197.039062 C 99.066406 196.628906 99.308594 196.265625 99.621094 195.953125 C 99.9375 195.640625 100.296875 195.398438 100.710938 195.226562 C 101.121094 195.054688 101.546875 194.972656 101.992188 194.972656 C 102.4375 194.972656 102.863281 195.054688 103.273438 195.226562 C 103.683594 195.398438 104.046875 195.640625 104.363281 195.953125 C 104.675781 196.265625 104.917969 196.628906 105.089844 197.039062 C 105.257812 197.449219 105.34375 197.878906 105.34375 198.324219 Z M 105.34375 198.324219 " fill-opacity="1" fill-rule="nonzero"/></g><g clip-path="url(#66ede234fb)"><path fill="#504f4f" d="M 276.183594 198.324219 C 276.183594 198.765625 276.097656 199.195312 275.925781 199.605469 C 275.757812 200.015625 275.515625 200.378906 275.199219 200.691406 C 274.886719 201.007812 274.523438 201.25 274.113281 201.417969 C 273.703125 201.589844 273.273438 201.675781 272.832031 201.675781 C 272.386719 201.675781 271.957031 201.589844 271.546875 201.417969 C 271.136719 201.25 270.773438 201.007812 270.460938 200.691406 C 270.148438 200.378906 269.90625 200.015625 269.734375 199.605469 C 269.5625 199.195312 269.480469 198.765625 269.480469 198.324219 C 269.480469 197.878906 269.5625 197.449219 269.734375 197.039062 C 269.90625 196.628906 270.148438 196.265625 270.460938 195.953125 C 270.773438 195.640625 271.136719 195.398438 271.546875 195.226562 C 271.957031 195.054688 272.386719 194.972656 272.832031 194.972656 C 273.273438 194.972656 273.703125 195.054688 274.113281 195.226562 C 274.523438 195.398438 274.886719 195.640625 275.199219 195.953125 C 275.515625 196.265625 275.757812 196.628906 275.925781 197.039062 C 276.097656 197.449219 276.183594 197.878906 276.183594 198.324219 Z M 276.183594 198.324219 " fill-opacity="1" fill-rule="nonzero"/></g><g clip-path="url(#0015f2a9f7)"><path fill="#231f20" d="M 199.949219 165.257812 C 199.539062 165.257812 199.136719 165.089844 198.851562 164.785156 C 198.625 164.546875 198.484375 164.265625 198.253906 163.804688 C 197.855469 163.003906 197.113281 161.523438 195.578125 159.570312 C 194.945312 158.765625 194.695312 158.492188 194.519531 158.320312 C 194.398438 158.203125 194.117188 157.9375 193.714844 157.625 C 193.34375 158.03125 192.925781 158.378906 192.472656 158.664062 C 190.90625 159.644531 189.324219 159.609375 188.167969 159.578125 L 188.085938 159.578125 C 188.050781 159.574219 184.445312 159.492188 180.597656 159.761719 L 180.414062 159.773438 C 179.167969 159.859375 177.882812 159.949219 176.914062 160.464844 C 175.996094 160.957031 175.453125 161.996094 175.105469 163.933594 C 175.003906 164.5 174.605469 164.972656 174.066406 165.164062 C 173.410156 165.398438 172.707031 165.175781 172.273438 164.601562 C 171.53125 163.613281 171.386719 162.296875 171.285156 161.335938 L 171.28125 161.304688 C 171.132812 159.949219 170.84375 156.660156 171.375 155.386719 C 171.664062 154.695312 172.53125 152.902344 174.339844 151.148438 C 177.890625 147.699219 183.742188 146.34375 184.875 146.105469 C 187.09375 145.640625 189.21875 145.476562 191.183594 145.613281 C 192.566406 145.710938 193.738281 145.886719 194.765625 146.148438 C 196.140625 146.496094 197.21875 147.175781 197.886719 148.109375 C 198.230469 148.59375 198.441406 149.089844 198.628906 149.527344 C 198.800781 149.929688 198.949219 150.277344 199.152344 150.496094 C 199.433594 150.796875 199.816406 151.070312 200.21875 151.363281 C 200.671875 151.683594 201.183594 152.050781 201.644531 152.523438 C 202.769531 153.675781 204.039062 155.605469 204.234375 157.566406 C 204.417969 159.402344 203.628906 160.988281 202.917969 162.167969 C 202.835938 162.300781 202.445312 162.914062 202.054688 163.488281 C 201.261719 164.648438 200.878906 165.167969 200.105469 165.25 C 200.054688 165.253906 200 165.257812 199.949219 165.257812 Z M 193.390625 154.207031 C 194.058594 154.207031 194.605469 154.59375 194.957031 154.839844 L 194.988281 154.863281 C 195.777344 155.410156 196.335938 155.925781 196.597656 156.183594 C 196.882812 156.464844 197.214844 156.835938 197.914062 157.722656 C 198.929688 159.015625 199.632812 160.121094 200.132812 160.996094 C 200.242188 160.832031 200.328125 160.699219 200.375 160.617188 C 201.074219 159.460938 201.351562 158.609375 201.277344 157.867188 C 201.183594 156.914062 200.460938 155.574219 199.519531 154.613281 C 199.242188 154.328125 198.878906 154.070312 198.496094 153.792969 C 198.011719 153.449219 197.464844 153.054688 196.980469 152.535156 C 196.421875 151.9375 196.128906 151.25 195.894531 150.703125 C 195.75 150.363281 195.625 150.070312 195.46875 149.851562 C 195.21875 149.5 194.710938 149.214844 194.035156 149.042969 C 193.183594 148.824219 192.183594 148.679688 190.976562 148.59375 C 189.28125 148.476562 187.433594 148.621094 185.480469 149.027344 C 182.730469 149.601562 178.703125 151.0625 176.40625 153.292969 C 174.984375 154.671875 174.316406 156.070312 174.128906 156.511719 C 174.066406 156.75 174.003906 157.585938 174.070312 158.960938 C 174.464844 158.523438 174.941406 158.136719 175.515625 157.828125 C 177.042969 157.011719 178.726562 156.894531 180.210938 156.792969 L 180.394531 156.78125 C 184.382812 156.503906 188.003906 156.585938 188.15625 156.59375 L 188.242188 156.59375 C 189.230469 156.617188 190.085938 156.636719 190.894531 156.132812 C 191.316406 155.867188 191.679688 155.488281 191.972656 155.003906 C 192.207031 154.613281 192.582031 154.34375 193.03125 154.246094 C 193.152344 154.21875 193.273438 154.207031 193.390625 154.207031 Z M 194.523438 156.539062 C 194.523438 156.539062 194.519531 156.546875 194.515625 156.546875 C 194.519531 156.546875 194.523438 156.539062 194.523438 156.539062 Z M 194.523438 156.539062 " fill-opacity="1" fill-rule="evenodd"/></g><path fill="#231f20" d="M 187.5 185.675781 C 186.664062 185.675781 185.710938 185.59375 184.6875 185.367188 C 183.773438 185.164062 181.398438 184.484375 179.066406 182.570312 C 177.949219 181.648438 175.898438 179.621094 174.734375 176.367188 C 174.4375 175.539062 174.238281 174.65625 174.117188 174.015625 C 173.335938 173.640625 172.617188 173.097656 172.003906 172.40625 C 171.179688 171.484375 170.605469 170.367188 170.34375 169.171875 C 169.808594 166.742188 170.628906 164.359375 172.59375 162.636719 C 173.210938 162.09375 174.152344 162.15625 174.691406 162.777344 C 175.230469 163.398438 175.167969 164.34375 174.550781 164.886719 C 173.089844 166.164062 173.035156 167.570312 173.246094 168.527344 C 173.554688 169.914062 174.628906 171.136719 175.859375 171.496094 C 176.425781 171.660156 176.839844 172.144531 176.917969 172.730469 C 177.011719 173.40625 177.226562 174.496094 177.53125 175.355469 C 178.488281 178.03125 180.242188 179.675781 180.949219 180.257812 C 182.785156 181.765625 184.625 182.292969 185.328125 182.449219 C 187.332031 182.894531 188.988281 182.601562 189.605469 182.453125 C 191.289062 182.054688 192.429688 181.269531 192.914062 180.929688 C 193.265625 180.6875 194.183594 180.003906 195.121094 178.890625 C 196.476562 177.28125 197.476562 175.082031 198.019531 172.535156 C 198.144531 171.9375 198.625 171.476562 199.226562 171.375 C 200.1875 171.210938 201.410156 169.542969 201.546875 167.632812 C 201.640625 166.316406 201.203125 165.492188 200.238281 165.183594 C 199.457031 164.929688 199.027344 164.089844 199.28125 163.304688 C 199.53125 162.519531 200.367188 162.085938 201.148438 162.339844 C 202.375 162.734375 203.328125 163.523438 203.90625 164.621094 C 204.390625 165.535156 204.597656 166.652344 204.511719 167.847656 C 204.335938 170.304688 202.90625 173.042969 200.726562 174.011719 C 200.046875 176.707031 198.925781 178.992188 197.394531 180.816406 C 196.265625 182.15625 195.160156 183.003906 194.601562 183.390625 C 194.027344 183.785156 192.511719 184.832031 190.289062 185.359375 C 189.6875 185.503906 188.714844 185.675781 187.5 185.675781 " fill-opacity="1" fill-rule="evenodd"/><path fill="#231f20" d="M 179.679688 190.476562 C 179.460938 190.476562 179.234375 190.429688 179.023438 190.320312 C 178.289062 189.957031 177.988281 189.058594 178.351562 188.320312 C 178.738281 187.539062 179.390625 185.96875 179.4375 184.25 C 179.453125 183.589844 179.367188 183.285156 179.226562 182.78125 C 179.183594 182.636719 179.140625 182.476562 179.09375 182.296875 C 178.890625 181.5 179.371094 180.683594 180.164062 180.480469 C 180.960938 180.273438 181.769531 180.757812 181.972656 181.554688 C 182.011719 181.695312 182.046875 181.828125 182.085938 181.964844 C 182.257812 182.578125 182.4375 183.214844 182.410156 184.328125 C 182.351562 186.621094 181.511719 188.644531 181.015625 189.648438 C 180.753906 190.175781 180.230469 190.476562 179.679688 190.476562 " fill-opacity="1" fill-rule="evenodd"/><path fill="#231f20" d="M 195.003906 190.945312 C 194.484375 190.945312 193.980469 190.667969 193.707031 190.179688 C 192.957031 188.835938 192.046875 186.726562 191.984375 184.328125 C 191.957031 183.210938 192.132812 182.578125 192.304688 181.964844 C 192.324219 181.90625 192.339844 181.851562 192.355469 181.792969 C 192.574219 180.996094 193.394531 180.53125 194.1875 180.75 C 194.976562 180.972656 195.441406 181.796875 195.21875 182.589844 C 195.203125 182.65625 195.183594 182.71875 195.167969 182.777344 C 195.027344 183.285156 194.9375 183.589844 194.957031 184.25 C 195.003906 186.039062 195.710938 187.667969 196.300781 188.71875 C 196.699219 189.4375 196.445312 190.347656 195.730469 190.753906 C 195.5 190.882812 195.25 190.945312 195.003906 190.945312 " fill-opacity="1" fill-rule="evenodd"/><g clip-path="url(#151359efd9)"><path fill="#231f20" d="M 218.792969 222.738281 L 155.925781 222.738281 C 155.105469 222.738281 154.441406 222.074219 154.4375 221.25 C 154.425781 216.75 154.632812 205.5 156.871094 198.261719 C 157.464844 196.328125 158.191406 194.75 159.148438 193.292969 C 159.953125 192.074219 162.269531 189.003906 166.414062 186.890625 C 170.203125 184.953125 173.832031 184.664062 176.207031 184.761719 C 176.5625 184.777344 176.902344 184.921875 177.164062 185.164062 L 183.738281 191.367188 C 184.339844 191.933594 184.367188 192.875 183.804688 193.476562 C 183.246094 194.078125 182.304688 194.109375 181.703125 193.542969 L 175.542969 187.734375 C 173.53125 187.710938 170.703125 188.046875 167.761719 189.550781 C 164.246094 191.34375 162.304688 193.917969 161.628906 194.941406 C 160.820312 196.171875 160.226562 197.46875 159.707031 199.148438 C 157.785156 205.371094 157.460938 215.207031 157.417969 219.75 L 217.300781 219.75 C 217.257812 215.207031 216.929688 205.371094 215.007812 199.148438 C 214.492188 197.46875 213.898438 196.171875 213.085938 194.941406 C 212.414062 193.917969 210.46875 191.34375 206.957031 189.550781 C 204.003906 188.042969 201.164062 187.714844 199.152344 187.734375 L 192.636719 193.570312 C 192.023438 194.121094 191.085938 194.066406 190.539062 193.449219 C 189.992188 192.835938 190.046875 191.890625 190.65625 191.339844 L 197.582031 185.140625 C 197.839844 184.910156 198.167969 184.777344 198.511719 184.761719 C 200.886719 184.664062 204.511719 184.953125 208.304688 186.890625 C 212.449219 189.003906 214.765625 192.074219 215.566406 193.292969 C 216.527344 194.75 217.25 196.328125 217.847656 198.261719 C 220.082031 205.5 220.292969 216.75 220.277344 221.25 C 220.277344 222.074219 219.609375 222.738281 218.792969 222.738281 " fill-opacity="1" fill-rule="evenodd"/></g><g clip-path="url(#e018109548)"><path fill="#231f20" d="M 233.441406 222.738281 L 141.273438 222.738281 C 140.453125 222.738281 139.789062 222.070312 139.789062 221.246094 C 139.789062 220.421875 140.453125 219.753906 141.273438 219.753906 L 233.441406 219.753906 C 234.261719 219.753906 234.929688 220.421875 234.929688 221.246094 C 234.929688 222.070312 234.261719 222.738281 233.441406 222.738281 " fill-opacity="1" fill-rule="evenodd"/></g><g clip-path="url(#24c14f80d2)"><path fill="#231f20" d="M 206.210938 222.738281 L 168.507812 222.738281 C 165.050781 222.738281 162.242188 219.914062 162.242188 216.445312 L 162.242188 215.742188 C 162.242188 214.917969 162.90625 214.25 163.730469 214.25 L 210.988281 214.25 C 211.808594 214.25 212.476562 214.917969 212.476562 215.742188 L 212.476562 216.445312 C 212.476562 219.914062 209.664062 222.738281 206.210938 222.738281 Z M 165.308594 217.234375 C 165.664062 218.679688 166.960938 219.753906 168.507812 219.753906 L 206.210938 219.753906 C 207.753906 219.753906 209.054688 218.679688 209.40625 217.234375 L 165.308594 217.234375 " fill-opacity="1" fill-rule="evenodd"/></g><path fill="#231f20" d="M 207.746094 217.234375 L 166.972656 217.234375 C 166.152344 217.234375 165.488281 216.566406 165.488281 215.742188 L 165.488281 194.945312 C 165.488281 192.75 167.265625 190.964844 169.449219 190.964844 L 205.265625 190.964844 C 207.453125 190.964844 209.230469 192.75 209.230469 194.945312 L 209.230469 215.742188 C 209.230469 216.566406 208.566406 217.234375 207.746094 217.234375 Z M 168.460938 214.25 L 206.257812 214.25 L 206.257812 194.945312 C 206.257812 194.394531 205.8125 193.949219 205.265625 193.949219 L 169.449219 193.949219 C 168.90625 193.949219 168.460938 194.394531 168.460938 194.945312 L 168.460938 214.25 " fill-opacity="1" fill-rule="evenodd"/><path fill="#231f20" d="M 181.488281 209.796875 C 181.175781 209.796875 180.859375 209.699219 180.589844 209.492188 L 175.105469 205.285156 C 174.738281 205.003906 174.519531 204.5625 174.519531 204.097656 C 174.519531 203.632812 174.738281 203.195312 175.105469 202.914062 L 180.589844 198.707031 C 181.242188 198.207031 182.171875 198.332031 182.671875 198.988281 C 183.171875 199.640625 183.046875 200.578125 182.390625 201.078125 L 178.457031 204.097656 L 182.394531 207.117188 C 183.046875 207.621094 183.171875 208.554688 182.671875 209.210938 C 182.378906 209.597656 181.9375 209.796875 181.488281 209.796875 " fill-opacity="1" fill-rule="evenodd"/><path fill="#231f20" d="M 193.226562 209.796875 C 192.78125 209.796875 192.335938 209.597656 192.042969 209.210938 C 191.546875 208.554688 191.671875 207.621094 192.324219 207.117188 L 196.257812 204.097656 L 192.324219 201.078125 C 191.671875 200.578125 191.546875 199.640625 192.042969 198.988281 C 192.542969 198.332031 193.476562 198.207031 194.128906 198.707031 L 199.613281 202.914062 C 199.980469 203.195312 200.195312 203.632812 200.195312 204.097656 C 200.195312 204.5625 199.980469 205.003906 199.613281 205.285156 L 194.128906 209.492188 C 193.859375 209.699219 193.542969 209.796875 193.226562 209.796875 " fill-opacity="1" fill-rule="evenodd"/><path fill="#231f20" d="M 185.566406 212.03125 C 185.433594 212.03125 185.300781 212.015625 185.167969 211.976562 C 184.375 211.753906 183.914062 210.929688 184.132812 210.136719 L 187.71875 197.257812 C 187.9375 196.464844 188.757812 196 189.550781 196.222656 C 190.339844 196.445312 190.800781 197.265625 190.582031 198.0625 L 187 210.941406 C 186.816406 211.601562 186.21875 212.03125 185.566406 212.03125 " fill-opacity="1" fill-rule="evenodd"/><g fill="#262728" fill-opacity="1"><g transform="translate(107.607781, 178.744424)"><g><path d="M -0.328125 -12.640625 C -0.484375 -12.804688 -0.550781 -12.96875 -0.53125 -13.125 C -0.5 -13.28125 -0.40625 -13.378906 -0.25 -13.421875 C -0.101562 -13.460938 0.0351562 -13.398438 0.171875 -13.234375 C 0.753906 -12.515625 1.1875 -11.691406 1.46875 -10.765625 C 1.75 -9.847656 1.78125 -8.765625 1.5625 -7.515625 C 1.3125 -6.160156 0.851562 -5.039062 0.1875 -4.15625 C -0.476562 -3.269531 -1.265625 -2.609375 -2.171875 -2.171875 C -3.085938 -1.742188 -4.046875 -1.523438 -5.046875 -1.515625 C -6.046875 -1.503906 -7.003906 -1.675781 -7.921875 -2.03125 C -8.847656 -2.394531 -9.660156 -2.9375 -10.359375 -3.65625 C -11.066406 -4.382812 -11.570312 -5.28125 -11.875 -6.34375 C -12.1875 -7.40625 -12.21875 -8.613281 -11.96875 -9.96875 C -11.875 -10.488281 -11.742188 -10.972656 -11.578125 -11.421875 C -11.410156 -11.878906 -11.21875 -12.289062 -11 -12.65625 C -10.925781 -12.851562 -10.789062 -13.078125 -10.59375 -13.328125 C -10.394531 -13.585938 -10.179688 -13.828125 -9.953125 -14.046875 C -9.734375 -14.273438 -9.535156 -14.441406 -9.359375 -14.546875 C -9.054688 -14.722656 -8.785156 -14.78125 -8.546875 -14.71875 C -8.316406 -14.664062 -8.140625 -14.550781 -8.015625 -14.375 C -7.898438 -14.207031 -7.863281 -14.019531 -7.90625 -13.8125 C -7.925781 -13.675781 -7.992188 -13.535156 -8.109375 -13.390625 C -8.234375 -13.242188 -8.421875 -13.132812 -8.671875 -13.0625 C -8.859375 -13.019531 -9.0625 -12.992188 -9.28125 -12.984375 C -9.5 -12.984375 -9.722656 -12.925781 -9.953125 -12.8125 C -10.191406 -12.707031 -10.457031 -12.441406 -10.75 -12.015625 C -10.925781 -11.703125 -11.070312 -11.351562 -11.1875 -10.96875 C -11.300781 -10.582031 -11.382812 -10.21875 -11.4375 -9.875 C -11.625 -8.863281 -11.554688 -7.953125 -11.234375 -7.140625 C -10.921875 -6.328125 -10.429688 -5.628906 -9.765625 -5.046875 C -9.109375 -4.472656 -8.347656 -4.03125 -7.484375 -3.71875 C -6.617188 -3.40625 -5.726562 -3.238281 -4.8125 -3.21875 C -3.90625 -3.207031 -3.039062 -3.347656 -2.21875 -3.640625 C -1.394531 -3.941406 -0.691406 -4.421875 -0.109375 -5.078125 C 0.460938 -5.734375 0.84375 -6.578125 1.03125 -7.609375 C 1.195312 -8.554688 1.222656 -9.347656 1.109375 -9.984375 C 1.003906 -10.617188 0.816406 -11.144531 0.546875 -11.5625 C 0.273438 -11.976562 -0.015625 -12.335938 -0.328125 -12.640625 Z M -0.328125 -12.640625 "/></g></g></g><g fill="#262728" fill-opacity="1"><g transform="translate(111.207983, 161.126888)"><g><path d="M 5.765625 -13.875 C 5.816406 -13.945312 5.875 -13.96875 5.9375 -13.9375 C 6.007812 -13.90625 6.023438 -13.84375 5.984375 -13.75 C 5.878906 -13.5 5.78125 -13.28125 5.6875 -13.09375 C 5.601562 -12.90625 5.515625 -12.703125 5.421875 -12.484375 L 5.40625 -12.5 L 4.75 -11 L 4.765625 -10.984375 C 4.671875 -10.773438 4.570312 -10.554688 4.46875 -10.328125 C 4.375 -10.109375 4.269531 -9.875 4.15625 -9.625 C 4.113281 -9.519531 4.054688 -9.484375 3.984375 -9.515625 C 3.921875 -9.546875 3.894531 -9.609375 3.90625 -9.703125 C 3.96875 -9.941406 4.035156 -10.15625 4.109375 -10.34375 C 4.179688 -10.53125 4.1875 -10.679688 4.125 -10.796875 C 4.0625 -10.910156 3.863281 -10.976562 3.53125 -11 C 3.175781 -11.007812 2.828125 -11.019531 2.484375 -11.03125 C 2.140625 -11.039062 1.789062 -11.050781 1.4375 -11.0625 L -1.375 -4.703125 L 0.078125 -3.1875 C 0.304688 -2.9375 0.492188 -2.859375 0.640625 -2.953125 C 0.796875 -3.046875 0.929688 -3.210938 1.046875 -3.453125 C 1.171875 -3.691406 1.300781 -3.90625 1.4375 -4.09375 C 1.5 -4.1875 1.5625 -4.210938 1.625 -4.171875 C 1.695312 -4.140625 1.710938 -4.070312 1.671875 -3.96875 C 1.554688 -3.726562 1.425781 -3.441406 1.28125 -3.109375 C 1.132812 -2.773438 1.007812 -2.5 0.90625 -2.28125 L 0.890625 -2.296875 L 0.703125 -1.84375 L 0.71875 -1.828125 C 0.625 -1.628906 0.535156 -1.4375 0.453125 -1.25 C 0.378906 -1.0625 0.285156 -0.84375 0.171875 -0.59375 C 0.128906 -0.5 0.0703125 -0.460938 0 -0.484375 C -0.0703125 -0.515625 -0.0976562 -0.582031 -0.078125 -0.6875 C -0.0234375 -0.914062 0.0351562 -1.128906 0.109375 -1.328125 C 0.191406 -1.523438 0.21875 -1.738281 0.1875 -1.96875 C 0.15625 -2.207031 0.00390625 -2.460938 -0.265625 -2.734375 C -1.648438 -4.203125 -3.03125 -5.664062 -4.40625 -7.125 C -5.789062 -8.59375 -7.179688 -10.050781 -8.578125 -11.5 C -8.816406 -11.757812 -8.96875 -11.972656 -9.03125 -12.140625 C -9.101562 -12.304688 -9.035156 -12.539062 -8.828125 -12.84375 L 4.25 -12.625 C 4.59375 -12.625 4.847656 -12.6875 5.015625 -12.8125 C 5.179688 -12.9375 5.3125 -13.097656 5.40625 -13.296875 C 5.507812 -13.492188 5.628906 -13.6875 5.765625 -13.875 Z M -1.703125 -5.0625 L 0.9375 -11.046875 C -0.375 -11.054688 -1.6875 -11.070312 -3 -11.09375 C -4.320312 -11.113281 -5.632812 -11.140625 -6.9375 -11.171875 C -7.289062 -11.171875 -7.347656 -11.046875 -7.109375 -10.796875 Z M -1.703125 -5.0625 "/></g></g></g><g fill="#262728" fill-opacity="1"><g transform="translate(119.713053, 143.140905)"><g><path d="M 9.359375 -12.53125 C 9.429688 -12.625 9.507812 -12.632812 9.59375 -12.5625 C 9.675781 -12.488281 9.679688 -12.410156 9.609375 -12.328125 L 7.046875 -9.078125 C 6.972656 -8.984375 6.894531 -8.96875 6.8125 -9.03125 C 6.726562 -9.101562 6.710938 -9.179688 6.765625 -9.265625 C 6.878906 -9.484375 6.988281 -9.671875 7.09375 -9.828125 C 7.195312 -9.992188 7.238281 -10.160156 7.21875 -10.328125 C 7.195312 -10.503906 7.039062 -10.707031 6.75 -10.9375 L -1.265625 -17.28125 L 4.1875 -7.359375 L 3.78125 -6.84375 C 3.664062 -6.695312 3.550781 -6.601562 3.4375 -6.5625 C 3.320312 -6.519531 3.191406 -6.492188 3.046875 -6.484375 L -7.296875 -9.203125 L 0.46875 -3.21875 C 0.757812 -3 1.007812 -2.894531 1.21875 -2.90625 C 1.425781 -2.914062 1.613281 -2.992188 1.78125 -3.140625 C 1.945312 -3.296875 2.113281 -3.445312 2.28125 -3.59375 C 2.363281 -3.675781 2.445312 -3.675781 2.53125 -3.59375 C 2.613281 -3.519531 2.617188 -3.441406 2.546875 -3.359375 L 0.3125 -0.53125 C 0.238281 -0.4375 0.15625 -0.425781 0.0625 -0.5 C -0.0195312 -0.570312 -0.03125 -0.648438 0.03125 -0.734375 C 0.132812 -0.941406 0.238281 -1.140625 0.34375 -1.328125 C 0.445312 -1.523438 0.484375 -1.726562 0.453125 -1.9375 C 0.421875 -2.144531 0.257812 -2.363281 -0.03125 -2.59375 L -7.9375 -8.96875 C -8.21875 -9.195312 -8.445312 -9.304688 -8.625 -9.296875 C -8.8125 -9.296875 -8.984375 -9.226562 -9.140625 -9.09375 C -9.296875 -8.957031 -9.460938 -8.8125 -9.640625 -8.65625 C -9.703125 -8.59375 -9.773438 -8.59375 -9.859375 -8.65625 C -9.941406 -8.71875 -9.953125 -8.789062 -9.890625 -8.875 L -8.5 -10.625 C -8.351562 -10.8125 -8.203125 -10.929688 -8.046875 -10.984375 C -7.898438 -11.035156 -7.738281 -11.035156 -7.5625 -10.984375 C -7.132812 -10.878906 -6.707031 -10.769531 -6.28125 -10.65625 C -5.863281 -10.539062 -5.441406 -10.429688 -5.015625 -10.328125 L 0.109375 -9 C 0.523438 -8.894531 0.941406 -8.785156 1.359375 -8.671875 C 1.785156 -8.566406 2.21875 -8.457031 2.65625 -8.34375 C 2.75 -8.3125 2.820312 -8.328125 2.875 -8.390625 C 2.925781 -8.460938 2.925781 -8.539062 2.875 -8.625 L -2.484375 -18.234375 L -0.71875 -20.484375 C -0.644531 -20.566406 -0.566406 -20.578125 -0.484375 -20.515625 C -0.398438 -20.460938 -0.382812 -20.382812 -0.4375 -20.28125 C -0.5625 -20.0625 -0.675781 -19.867188 -0.78125 -19.703125 C -0.894531 -19.535156 -0.9375 -19.367188 -0.90625 -19.203125 C -0.882812 -19.035156 -0.722656 -18.832031 -0.421875 -18.59375 L 7.71875 -12.15625 C 8.007812 -11.925781 8.238281 -11.816406 8.40625 -11.828125 C 8.570312 -11.847656 8.722656 -11.929688 8.859375 -12.078125 C 9.003906 -12.222656 9.171875 -12.375 9.359375 -12.53125 Z M 9.359375 -12.53125 "/></g></g></g><g fill="#262728" fill-opacity="1"><g transform="translate(133.286058, 127.492284)"><g><path d="M 3.328125 -3.4375 C 3.421875 -3.5 3.492188 -3.488281 3.546875 -3.40625 C 3.609375 -3.320312 3.597656 -3.242188 3.515625 -3.171875 L 0.390625 -0.46875 C 0.296875 -0.394531 0.210938 -0.394531 0.140625 -0.46875 C 0.078125 -0.550781 0.0859375 -0.632812 0.171875 -0.71875 C 0.304688 -0.894531 0.441406 -1.054688 0.578125 -1.203125 C 0.722656 -1.347656 0.800781 -1.503906 0.8125 -1.671875 C 0.820312 -1.847656 0.707031 -2.078125 0.46875 -2.359375 L -6.296875 -10.21875 C -6.546875 -10.507812 -6.757812 -10.664062 -6.9375 -10.6875 C -7.113281 -10.707031 -7.28125 -10.65625 -7.4375 -10.53125 C -7.601562 -10.414062 -7.78125 -10.300781 -7.96875 -10.1875 C -8.070312 -10.125 -8.15625 -10.132812 -8.21875 -10.21875 C -8.289062 -10.300781 -8.28125 -10.378906 -8.1875 -10.453125 L -5.0625 -13.15625 C -4.976562 -13.226562 -4.894531 -13.222656 -4.8125 -13.140625 C -4.738281 -13.066406 -4.738281 -12.988281 -4.8125 -12.90625 C -4.96875 -12.71875 -5.117188 -12.550781 -5.265625 -12.40625 C -5.410156 -12.257812 -5.484375 -12.097656 -5.484375 -11.921875 C -5.492188 -11.742188 -5.375 -11.507812 -5.125 -11.21875 L 1.640625 -3.359375 C 1.878906 -3.078125 2.082031 -2.925781 2.25 -2.90625 C 2.425781 -2.894531 2.597656 -2.945312 2.765625 -3.0625 C 2.929688 -3.1875 3.117188 -3.3125 3.328125 -3.4375 Z M 3.328125 -3.4375 "/></g></g></g><g fill="#262728" fill-opacity="1"><g transform="translate(140.905539, 121.060692)"><g><path d="M 8.15625 -8.140625 C 8.132812 -8.242188 8.171875 -8.316406 8.265625 -8.359375 C 8.359375 -8.398438 8.425781 -8.382812 8.46875 -8.3125 L 9.6875 -6.078125 C 9.71875 -6.023438 9.691406 -5.972656 9.609375 -5.921875 L 0.453125 -0.40625 C 0.359375 -0.34375 0.285156 -0.351562 0.234375 -0.4375 C 0.179688 -0.53125 0.203125 -0.613281 0.296875 -0.6875 C 0.453125 -0.832031 0.609375 -0.96875 0.765625 -1.09375 C 0.929688 -1.21875 1.035156 -1.359375 1.078125 -1.515625 C 1.117188 -1.679688 1.046875 -1.921875 0.859375 -2.234375 L -4.5 -11.125 C -4.695312 -11.457031 -4.878906 -11.644531 -5.046875 -11.6875 C -5.210938 -11.738281 -5.382812 -11.71875 -5.5625 -11.625 C -5.75 -11.539062 -5.945312 -11.457031 -6.15625 -11.375 C -6.257812 -11.332031 -6.335938 -11.351562 -6.390625 -11.4375 C -6.441406 -11.53125 -6.421875 -11.609375 -6.328125 -11.671875 L -2.78125 -13.8125 C -2.6875 -13.863281 -2.609375 -13.847656 -2.546875 -13.765625 C -2.484375 -13.679688 -2.5 -13.597656 -2.59375 -13.515625 C -2.769531 -13.359375 -2.941406 -13.21875 -3.109375 -13.09375 C -3.273438 -12.976562 -3.378906 -12.835938 -3.421875 -12.671875 C -3.460938 -12.503906 -3.382812 -12.253906 -3.1875 -11.921875 L 2.1875 -3.015625 C 2.351562 -2.742188 2.53125 -2.59375 2.71875 -2.5625 C 2.914062 -2.53125 3.113281 -2.5625 3.3125 -2.65625 L 6.703125 -4.703125 C 7.328125 -5.078125 7.765625 -5.441406 8.015625 -5.796875 C 8.265625 -6.148438 8.390625 -6.519531 8.390625 -6.90625 C 8.390625 -7.300781 8.3125 -7.710938 8.15625 -8.140625 Z M 8.15625 -8.140625 "/></g></g></g><g fill="#262728" fill-opacity="1"><g transform="translate(155.431954, 112.653084)"><g><path d="M 3.21875 -15.171875 C 4.351562 -15.535156 5.410156 -15.671875 6.390625 -15.578125 C 7.378906 -15.492188 8.257812 -15.226562 9.03125 -14.78125 C 9.800781 -14.34375 10.453125 -13.773438 10.984375 -13.078125 C 11.523438 -12.390625 11.929688 -11.628906 12.203125 -10.796875 C 12.472656 -9.960938 12.585938 -9.109375 12.546875 -8.234375 C 12.503906 -7.359375 12.296875 -6.515625 11.921875 -5.703125 C 11.554688 -4.898438 10.992188 -4.175781 10.234375 -3.53125 C 9.484375 -2.894531 8.539062 -2.394531 7.40625 -2.03125 C 6.25 -1.664062 5.179688 -1.523438 4.203125 -1.609375 C 3.222656 -1.703125 2.34375 -1.96875 1.5625 -2.40625 C 0.789062 -2.851562 0.140625 -3.421875 -0.390625 -4.109375 C -0.921875 -4.796875 -1.320312 -5.554688 -1.59375 -6.390625 C -1.863281 -7.222656 -1.976562 -8.078125 -1.9375 -8.953125 C -1.90625 -9.835938 -1.703125 -10.679688 -1.328125 -11.484375 C -0.953125 -12.296875 -0.390625 -13.019531 0.359375 -13.65625 C 1.109375 -14.300781 2.0625 -14.804688 3.21875 -15.171875 Z M 7.28125 -2.4375 C 8.289062 -2.757812 9.082031 -3.253906 9.65625 -3.921875 C 10.238281 -4.597656 10.628906 -5.375 10.828125 -6.25 C 11.023438 -7.125 11.054688 -8.023438 10.921875 -8.953125 C 10.796875 -9.878906 10.519531 -10.753906 10.09375 -11.578125 C 9.675781 -12.410156 9.128906 -13.125 8.453125 -13.71875 C 7.785156 -14.320312 7.019531 -14.726562 6.15625 -14.9375 C 5.289062 -15.144531 4.351562 -15.085938 3.34375 -14.765625 C 2.320312 -14.441406 1.519531 -13.941406 0.9375 -13.265625 C 0.351562 -12.597656 -0.03125 -11.828125 -0.21875 -10.953125 C -0.414062 -10.078125 -0.445312 -9.175781 -0.3125 -8.25 C -0.1875 -7.320312 0.0859375 -6.441406 0.515625 -5.609375 C 0.953125 -4.785156 1.5 -4.078125 2.15625 -3.484375 C 2.820312 -2.890625 3.585938 -2.484375 4.453125 -2.265625 C 5.316406 -2.054688 6.257812 -2.113281 7.28125 -2.4375 Z M 6.328125 -9.09375 C 6.441406 -9.082031 6.507812 -9.039062 6.53125 -8.96875 C 6.550781 -8.90625 6.515625 -8.847656 6.421875 -8.796875 C 6.328125 -8.722656 6.207031 -8.660156 6.0625 -8.609375 C 5.925781 -8.554688 5.835938 -8.476562 5.796875 -8.375 C 5.734375 -8.269531 5.722656 -8.140625 5.765625 -7.984375 C 5.816406 -7.835938 5.828125 -7.695312 5.796875 -7.5625 C 5.785156 -7.46875 5.75 -7.410156 5.6875 -7.390625 C 5.625 -7.367188 5.5625 -7.394531 5.5 -7.46875 C 5.425781 -7.570312 5.359375 -7.695312 5.296875 -7.84375 C 5.242188 -8 5.175781 -8.085938 5.09375 -8.109375 C 4.988281 -8.179688 4.859375 -8.195312 4.703125 -8.15625 C 4.554688 -8.113281 4.414062 -8.097656 4.28125 -8.109375 C 4.1875 -8.117188 4.128906 -8.160156 4.109375 -8.234375 C 4.085938 -8.304688 4.113281 -8.363281 4.1875 -8.40625 C 4.289062 -8.476562 4.410156 -8.539062 4.546875 -8.59375 C 4.691406 -8.65625 4.785156 -8.738281 4.828125 -8.84375 C 4.890625 -8.9375 4.894531 -9.054688 4.84375 -9.203125 C 4.800781 -9.359375 4.789062 -9.5 4.8125 -9.625 C 4.820312 -9.726562 4.859375 -9.789062 4.921875 -9.8125 C 4.992188 -9.84375 5.054688 -9.8125 5.109375 -9.71875 C 5.179688 -9.625 5.242188 -9.503906 5.296875 -9.359375 C 5.359375 -9.222656 5.441406 -9.132812 5.546875 -9.09375 C 5.628906 -9.019531 5.75 -9.003906 5.90625 -9.046875 C 6.0625 -9.097656 6.203125 -9.113281 6.328125 -9.09375 Z M 6.328125 -9.09375 "/></g></g></g><g fill="#262728" fill-opacity="1"><g transform="translate(175.392138, 107.291191)"><g/></g></g><g fill="#262728" fill-opacity="1"><g transform="translate(184.573148, 106.240073)"><g><path d="M 11.265625 -1.984375 C 11.296875 -2.078125 11.363281 -2.117188 11.46875 -2.109375 C 11.570312 -2.097656 11.625 -2.039062 11.625 -1.9375 L 11.4375 0.25 C 11.425781 0.3125 11.375 0.335938 11.28125 0.328125 L 0.609375 -0.078125 C 0.492188 -0.0859375 0.4375 -0.144531 0.4375 -0.25 C 0.445312 -0.351562 0.503906 -0.410156 0.609375 -0.421875 C 0.835938 -0.453125 1.050781 -0.472656 1.25 -0.484375 C 1.445312 -0.492188 1.609375 -0.554688 1.734375 -0.671875 C 1.859375 -0.796875 1.929688 -1.039062 1.953125 -1.40625 L 2.359375 -11.765625 C 2.367188 -12.148438 2.316406 -12.40625 2.203125 -12.53125 C 2.085938 -12.664062 1.929688 -12.742188 1.734375 -12.765625 C 1.535156 -12.796875 1.320312 -12.835938 1.09375 -12.890625 C 0.988281 -12.910156 0.9375 -12.972656 0.9375 -13.078125 C 0.945312 -13.179688 1.007812 -13.226562 1.125 -13.21875 L 11.3125 -12.828125 C 11.414062 -12.816406 11.46875 -12.78125 11.46875 -12.71875 L 11.515625 -10.515625 C 11.503906 -10.429688 11.441406 -10.382812 11.328125 -10.375 C 11.210938 -10.363281 11.140625 -10.40625 11.109375 -10.5 C 11.035156 -10.976562 10.90625 -11.351562 10.71875 -11.625 C 10.539062 -11.894531 10.253906 -12.09375 9.859375 -12.21875 C 9.472656 -12.351562 8.914062 -12.4375 8.1875 -12.46875 L 4.890625 -12.59375 C 4.617188 -12.601562 4.390625 -12.554688 4.203125 -12.453125 C 4.015625 -12.347656 3.914062 -12.113281 3.90625 -11.75 L 3.703125 -6.46875 L 7.890625 -6.3125 C 8.546875 -6.28125 8.984375 -6.40625 9.203125 -6.6875 C 9.421875 -6.96875 9.546875 -7.265625 9.578125 -7.578125 C 9.585938 -7.691406 9.648438 -7.738281 9.765625 -7.71875 C 9.878906 -7.707031 9.9375 -7.648438 9.9375 -7.546875 L 9.8125 -4.46875 C 9.8125 -4.375 9.753906 -4.328125 9.640625 -4.328125 C 9.523438 -4.328125 9.460938 -4.375 9.453125 -4.46875 C 9.441406 -4.789062 9.335938 -5.09375 9.140625 -5.375 C 8.941406 -5.664062 8.515625 -5.828125 7.859375 -5.859375 L 3.671875 -6.015625 L 3.5 -1.3125 C 3.476562 -1 3.539062 -0.773438 3.6875 -0.640625 C 3.84375 -0.515625 4.023438 -0.429688 4.234375 -0.390625 L 8.421875 -0.234375 C 9.140625 -0.203125 9.679688 -0.238281 10.046875 -0.34375 C 10.410156 -0.445312 10.675781 -0.632812 10.84375 -0.90625 C 11.007812 -1.175781 11.148438 -1.535156 11.265625 -1.984375 Z M 11.265625 -1.984375 "/></g></g></g><g fill="#262728" fill-opacity="1"><g transform="translate(200.967267, 107.331262)"><g><path d="M 7.515625 -6.1875 C 8.128906 -5.882812 8.757812 -5.566406 9.40625 -5.234375 C 10.050781 -4.898438 10.628906 -4.519531 11.140625 -4.09375 C 11.648438 -3.675781 12.03125 -3.179688 12.28125 -2.609375 C 12.53125 -2.035156 12.5625 -1.378906 12.375 -0.640625 C 12.144531 0.242188 11.707031 0.898438 11.0625 1.328125 C 10.414062 1.753906 9.660156 2 8.796875 2.0625 C 7.929688 2.125 7.050781 2.039062 6.15625 1.8125 C 5.039062 1.53125 4.070312 1.125 3.25 0.59375 C 2.4375 0.0703125 1.707031 -0.675781 1.0625 -1.65625 C 0.9375 -1.882812 0.929688 -2.066406 1.046875 -2.203125 C 1.160156 -2.347656 1.285156 -2.398438 1.421875 -2.359375 C 1.566406 -2.328125 1.679688 -2.222656 1.765625 -2.046875 C 2.003906 -1.453125 2.347656 -0.921875 2.796875 -0.453125 C 3.253906 0.00390625 3.765625 0.378906 4.328125 0.671875 C 4.898438 0.960938 5.445312 1.164062 5.96875 1.28125 C 6.769531 1.445312 7.507812 1.457031 8.1875 1.3125 C 8.875 1.175781 9.445312 0.914062 9.90625 0.53125 C 10.363281 0.15625 10.648438 -0.28125 10.765625 -0.78125 C 10.890625 -1.28125 10.789062 -1.796875 10.46875 -2.328125 C 10.144531 -2.867188 9.535156 -3.367188 8.640625 -3.828125 C 8.023438 -4.148438 7.367188 -4.476562 6.671875 -4.8125 C 5.984375 -5.144531 5.351562 -5.507812 4.78125 -5.90625 C 4.21875 -6.3125 3.796875 -6.78125 3.515625 -7.3125 C 3.234375 -7.84375 3.179688 -8.460938 3.359375 -9.171875 C 3.566406 -10.023438 3.96875 -10.65625 4.5625 -11.0625 C 5.15625 -11.476562 5.847656 -11.71875 6.640625 -11.78125 C 7.441406 -11.84375 8.242188 -11.769531 9.046875 -11.5625 C 9.953125 -11.332031 10.789062 -10.960938 11.5625 -10.453125 C 11.84375 -10.285156 12.125 -10.0625 12.40625 -9.78125 L 12.453125 -9.765625 C 12.609375 -9.609375 12.742188 -9.453125 12.859375 -9.296875 C 12.972656 -9.148438 13.066406 -9.015625 13.140625 -8.890625 C 13.328125 -8.472656 13.328125 -8.15625 13.140625 -7.9375 C 12.953125 -7.71875 12.738281 -7.640625 12.5 -7.703125 C 12.394531 -7.722656 12.296875 -7.773438 12.203125 -7.859375 C 12.109375 -7.953125 12.039062 -8.082031 12 -8.25 C 11.9375 -8.457031 11.910156 -8.664062 11.921875 -8.875 C 11.929688 -9.082031 11.890625 -9.296875 11.796875 -9.515625 C 11.703125 -9.742188 11.460938 -9.992188 11.078125 -10.265625 C 10.472656 -10.640625 9.789062 -10.925781 9.03125 -11.125 C 8.4375 -11.269531 7.851562 -11.328125 7.28125 -11.296875 C 6.707031 -11.265625 6.210938 -11.109375 5.796875 -10.828125 C 5.378906 -10.546875 5.097656 -10.113281 4.953125 -9.53125 C 4.867188 -9.195312 4.867188 -8.847656 4.953125 -8.484375 C 5.035156 -8.128906 5.269531 -7.757812 5.65625 -7.375 C 6.050781 -6.988281 6.671875 -6.59375 7.515625 -6.1875 Z M 7.515625 -6.1875 "/></g></g></g><g fill="#262728" fill-opacity="1"><g transform="translate(217.056958, 111.835662)"><g><path d="M 11.875 -8.859375 C 12.769531 -8.410156 13.53125 -7.847656 14.15625 -7.171875 C 14.78125 -6.492188 15.1875 -5.742188 15.375 -4.921875 C 15.5625 -4.109375 15.4375 -3.269531 15 -2.40625 C 14.59375 -1.570312 14.046875 -0.988281 13.359375 -0.65625 C 12.671875 -0.320312 11.921875 -0.160156 11.109375 -0.171875 C 10.296875 -0.191406 9.488281 -0.332031 8.6875 -0.59375 C 7.894531 -0.863281 7.171875 -1.207031 6.515625 -1.625 L 6.03125 -1.84375 C 5.863281 -1.925781 5.8125 -2.035156 5.875 -2.171875 C 5.9375 -2.316406 6.046875 -2.34375 6.203125 -2.25 C 6.316406 -2.15625 6.378906 -2.097656 6.390625 -2.078125 C 6.398438 -2.066406 6.472656 -2.03125 6.609375 -1.96875 C 7.535156 -1.507812 8.441406 -1.226562 9.328125 -1.125 C 10.222656 -1.03125 11.023438 -1.144531 11.734375 -1.46875 C 12.453125 -1.800781 13.007812 -2.367188 13.40625 -3.171875 C 14 -4.378906 13.988281 -5.488281 13.375 -6.5 C 12.769531 -7.507812 11.703125 -8.394531 10.171875 -9.15625 C 9.984375 -9.25 9.84375 -9.316406 9.75 -9.359375 C 9.664062 -9.398438 9.597656 -9.4375 9.546875 -9.46875 L 9.609375 -9.421875 C 9.359375 -9.546875 9.125 -9.597656 8.90625 -9.578125 C 8.695312 -9.566406 8.507812 -9.398438 8.34375 -9.078125 L 3.71875 0.28125 C 3.5625 0.613281 3.503906 0.863281 3.546875 1.03125 C 3.597656 1.207031 3.710938 1.347656 3.890625 1.453125 C 4.078125 1.554688 4.257812 1.675781 4.4375 1.8125 C 4.53125 1.875 4.550781 1.953125 4.5 2.046875 C 4.445312 2.148438 4.367188 2.175781 4.265625 2.125 L 0.546875 0.28125 C 0.460938 0.238281 0.4375 0.164062 0.46875 0.0625 C 0.507812 -0.0390625 0.582031 -0.078125 0.6875 -0.046875 C 0.914062 0.0234375 1.117188 0.0976562 1.296875 0.171875 C 1.484375 0.253906 1.660156 0.257812 1.828125 0.1875 C 1.992188 0.125 2.15625 -0.0703125 2.3125 -0.40625 L 6.921875 -9.71875 C 7.085938 -10.050781 7.144531 -10.300781 7.09375 -10.46875 C 7.039062 -10.632812 6.925781 -10.769531 6.75 -10.875 C 6.582031 -10.976562 6.40625 -11.097656 6.21875 -11.234375 C 6.132812 -11.316406 6.117188 -11.398438 6.171875 -11.484375 C 6.234375 -11.578125 6.304688 -11.601562 6.390625 -11.5625 Z M 11.875 -8.859375 "/></g></g></g><g fill="#262728" fill-opacity="1"><g transform="translate(232.32089, 119.766515)"><g><path d="M 11.796875 9.296875 C 11.859375 9.378906 11.863281 9.445312 11.8125 9.5 C 11.757812 9.5625 11.691406 9.5625 11.609375 9.5 C 11.398438 9.320312 11.210938 9.164062 11.046875 9.03125 C 10.890625 8.90625 10.71875 8.765625 10.53125 8.609375 L 10.546875 8.59375 L 9.28125 7.546875 L 9.265625 7.5625 C 9.097656 7.425781 8.921875 7.28125 8.734375 7.125 C 8.546875 6.96875 8.34375 6.800781 8.125 6.625 C 8.039062 6.550781 8.023438 6.484375 8.078125 6.421875 C 8.128906 6.367188 8.195312 6.359375 8.28125 6.390625 C 8.488281 6.515625 8.671875 6.632812 8.828125 6.75 C 8.992188 6.875 9.144531 6.921875 9.28125 6.890625 C 9.414062 6.867188 9.53125 6.695312 9.625 6.375 C 9.726562 6.050781 9.832031 5.722656 9.9375 5.390625 C 10.050781 5.054688 10.15625 4.71875 10.25 4.375 L 4.890625 -0.0625 L 3.046875 0.9375 C 2.753906 1.09375 2.628906 1.253906 2.671875 1.421875 C 2.710938 1.597656 2.832031 1.773438 3.03125 1.953125 C 3.238281 2.128906 3.410156 2.3125 3.546875 2.5 C 3.628906 2.59375 3.640625 2.660156 3.578125 2.703125 C 3.515625 2.753906 3.445312 2.75 3.375 2.6875 C 3.164062 2.507812 2.921875 2.304688 2.640625 2.078125 C 2.359375 1.847656 2.125 1.65625 1.9375 1.5 L 1.953125 1.484375 L 1.578125 1.171875 L 1.5625 1.1875 C 1.394531 1.050781 1.234375 0.914062 1.078125 0.78125 C 0.921875 0.65625 0.734375 0.503906 0.515625 0.328125 C 0.441406 0.265625 0.425781 0.203125 0.46875 0.140625 C 0.519531 0.078125 0.585938 0.0664062 0.671875 0.109375 C 0.878906 0.222656 1.070312 0.34375 1.25 0.46875 C 1.425781 0.601562 1.628906 0.6875 1.859375 0.71875 C 2.085938 0.75 2.367188 0.671875 2.703125 0.484375 C 4.492188 -0.453125 6.28125 -1.382812 8.0625 -2.3125 C 9.84375 -3.25 11.625 -4.191406 13.40625 -5.140625 C 13.71875 -5.296875 13.960938 -5.382812 14.140625 -5.40625 C 14.316406 -5.425781 14.523438 -5.289062 14.765625 -5 L 11 7.5 C 10.914062 7.84375 10.910156 8.109375 10.984375 8.296875 C 11.054688 8.492188 11.171875 8.664062 11.328125 8.8125 C 11.492188 8.957031 11.648438 9.117188 11.796875 9.296875 Z M 5.34375 -0.265625 L 10.375 3.90625 C 10.75 2.644531 11.125 1.382812 11.5 0.125 C 11.875 -1.132812 12.25 -2.394531 12.625 -3.65625 C 12.726562 -4 12.625 -4.085938 12.3125 -3.921875 Z M 5.34375 -0.265625 "/></g></g></g><g fill="#262728" fill-opacity="1"><g transform="translate(247.279069, 132.929752)"><g><path d="M 11.296875 7.390625 C 11.484375 7.628906 11.523438 7.867188 11.421875 8.109375 C 11.328125 8.347656 11.160156 8.566406 10.921875 8.765625 C 10.691406 8.960938 10.488281 9.117188 10.3125 9.234375 C 9.914062 9.523438 9.484375 9.734375 9.015625 9.859375 C 8.554688 9.984375 8.101562 9.984375 7.65625 9.859375 C 7.207031 9.742188 6.800781 9.441406 6.4375 8.953125 C 6.101562 8.503906 5.925781 8.015625 5.90625 7.484375 C 5.894531 6.960938 5.953125 6.414062 6.078125 5.84375 C 6.203125 5.28125 6.332031 4.71875 6.46875 4.15625 C 6.601562 3.601562 6.671875 3.0625 6.671875 2.53125 C 6.671875 2.007812 6.515625 1.523438 6.203125 1.078125 C 6.085938 0.941406 6.085938 0.820312 6.203125 0.71875 C 6.328125 0.625 6.441406 0.65625 6.546875 0.8125 C 6.609375 0.9375 6.640625 1.007812 6.640625 1.03125 C 6.640625 1.050781 6.691406 1.128906 6.796875 1.265625 C 7.410156 2.085938 8.09375 2.742188 8.84375 3.234375 C 9.59375 3.722656 10.359375 3.976562 11.140625 4 C 11.921875 4.03125 12.671875 3.78125 13.390625 3.25 C 14.460938 2.445312 14.957031 1.453125 14.875 0.265625 C 14.800781 -0.910156 14.253906 -2.179688 13.234375 -3.546875 C 13.109375 -3.703125 13.015625 -3.820312 12.953125 -3.90625 C 12.898438 -3.988281 12.851562 -4.054688 12.8125 -4.109375 L 12.84375 -4.03125 C 12.675781 -4.25 12.492188 -4.398438 12.296875 -4.484375 C 12.097656 -4.566406 11.851562 -4.5 11.5625 -4.28125 L 3.1875 1.953125 C 2.894531 2.171875 2.726562 2.363281 2.6875 2.53125 C 2.644531 2.707031 2.679688 2.878906 2.796875 3.046875 C 2.921875 3.222656 3.035156 3.414062 3.140625 3.625 C 3.179688 3.71875 3.15625 3.796875 3.0625 3.859375 C 2.976562 3.929688 2.898438 3.925781 2.828125 3.84375 L 0.34375 0.5 C 0.28125 0.40625 0.289062 0.320312 0.375 0.25 C 0.46875 0.1875 0.554688 0.191406 0.640625 0.265625 C 0.804688 0.421875 0.953125 0.578125 1.078125 0.734375 C 1.203125 0.890625 1.351562 0.976562 1.53125 1 C 1.71875 1.019531 1.957031 0.921875 2.25 0.703125 L 10.578125 -5.515625 C 10.878906 -5.734375 11.046875 -5.929688 11.078125 -6.109375 C 11.109375 -6.285156 11.070312 -6.457031 10.96875 -6.625 C 10.863281 -6.800781 10.753906 -6.992188 10.640625 -7.203125 C 10.609375 -7.304688 10.632812 -7.382812 10.71875 -7.4375 C 10.800781 -7.5 10.875 -7.484375 10.9375 -7.390625 L 14.578125 -2.5 C 15.179688 -1.6875 15.609375 -0.84375 15.859375 0.03125 C 16.109375 0.914062 16.128906 1.765625 15.921875 2.578125 C 15.722656 3.398438 15.234375 4.097656 14.453125 4.671875 C 13.867188 5.109375 13.269531 5.363281 12.65625 5.4375 C 12.050781 5.507812 11.453125 5.445312 10.859375 5.25 C 10.273438 5.050781 9.710938 4.757812 9.171875 4.375 C 8.640625 3.988281 8.15625 3.546875 7.71875 3.046875 C 7.894531 3.453125 7.972656 3.863281 7.953125 4.28125 C 7.929688 4.707031 7.863281 5.125 7.75 5.53125 C 7.644531 5.9375 7.550781 6.332031 7.46875 6.71875 C 7.382812 7.113281 7.347656 7.488281 7.359375 7.84375 C 7.367188 8.195312 7.488281 8.53125 7.71875 8.84375 C 7.945312 9.144531 8.222656 9.328125 8.546875 9.390625 C 8.867188 9.453125 9.160156 9.40625 9.421875 9.25 C 9.679688 9.101562 9.835938 8.875 9.890625 8.5625 C 9.972656 8.28125 10.03125 8.019531 10.0625 7.78125 C 10.101562 7.550781 10.207031 7.375 10.375 7.25 C 10.539062 7.125 10.707031 7.078125 10.875 7.109375 C 11.050781 7.148438 11.191406 7.242188 11.296875 7.390625 Z M 11.296875 7.390625 "/></g></g></g><g fill="#262728" fill-opacity="1"><g transform="translate(257.818952, 148.030956)"><g><path d="M 6.984375 9.0625 C 7.078125 9.0625 7.140625 9.109375 7.171875 9.203125 C 7.210938 9.296875 7.1875 9.363281 7.09375 9.40625 L 4.71875 10.359375 C 4.65625 10.367188 4.601562 10.328125 4.5625 10.234375 L 0.328125 0.765625 L 0.34375 0.765625 C 0.28125 0.546875 0.316406 0.390625 0.453125 0.296875 C 0.597656 0.203125 0.738281 0.15625 0.875 0.15625 C 2.476562 0.445312 4.085938 0.78125 5.703125 1.15625 C 7.328125 1.539062 8.953125 1.925781 10.578125 2.3125 C 12.210938 2.707031 13.828125 3.054688 15.421875 3.359375 L 13.15625 -1.671875 C 12.863281 -2.335938 12.5625 -2.8125 12.25 -3.09375 C 11.9375 -3.375 11.59375 -3.519531 11.21875 -3.53125 C 10.851562 -3.550781 10.429688 -3.519531 9.953125 -3.4375 C 9.867188 -3.414062 9.804688 -3.457031 9.765625 -3.5625 C 9.734375 -3.675781 9.753906 -3.75 9.828125 -3.78125 L 12.21875 -4.734375 C 12.28125 -4.753906 12.332031 -4.71875 12.375 -4.625 L 16.734375 5.140625 L 1.78125 1.921875 C 1.488281 1.890625 1.398438 2.003906 1.515625 2.265625 L 3.78125 7.3125 C 4.070312 7.96875 4.375 8.4375 4.6875 8.71875 C 5.007812 9 5.359375 9.148438 5.734375 9.171875 C 6.117188 9.203125 6.535156 9.164062 6.984375 9.0625 Z M 6.984375 9.0625 "/></g></g></g><g fill="#262728" fill-opacity="1"><g transform="translate(264.371708, 163.469147)"><g><path d="M 3.203125 14.671875 C 3.191406 14.765625 3.144531 14.816406 3.0625 14.828125 C 2.988281 14.847656 2.941406 14.8125 2.921875 14.71875 C 2.867188 14.445312 2.820312 14.207031 2.78125 14 C 2.75 13.800781 2.707031 13.582031 2.65625 13.34375 L 2.6875 13.34375 L 2.390625 11.734375 L 2.359375 11.734375 C 2.316406 11.515625 2.269531 11.285156 2.21875 11.046875 C 2.175781 10.804688 2.125 10.550781 2.0625 10.28125 C 2.039062 10.164062 2.066406 10.097656 2.140625 10.078125 C 2.222656 10.066406 2.285156 10.109375 2.328125 10.203125 C 2.410156 10.421875 2.472656 10.628906 2.515625 10.828125 C 2.566406 11.035156 2.648438 11.164062 2.765625 11.21875 C 2.890625 11.28125 3.097656 11.222656 3.390625 11.046875 C 3.671875 10.859375 3.957031 10.671875 4.25 10.484375 C 4.550781 10.296875 4.84375 10.101562 5.125 9.90625 L 3.796875 3.078125 L 1.765625 2.65625 C 1.421875 2.59375 1.210938 2.640625 1.140625 2.796875 C 1.066406 2.960938 1.050781 3.175781 1.09375 3.4375 C 1.132812 3.695312 1.160156 3.945312 1.171875 4.1875 C 1.171875 4.300781 1.128906 4.359375 1.046875 4.359375 C 0.960938 4.367188 0.910156 4.320312 0.890625 4.21875 C 0.835938 3.945312 0.773438 3.632812 0.703125 3.28125 C 0.640625 2.925781 0.585938 2.628906 0.546875 2.390625 L 0.578125 2.390625 L 0.484375 1.921875 L 0.453125 1.921875 C 0.410156 1.703125 0.367188 1.492188 0.328125 1.296875 C 0.296875 1.097656 0.25 0.859375 0.1875 0.578125 C 0.175781 0.484375 0.207031 0.421875 0.28125 0.390625 C 0.351562 0.367188 0.410156 0.410156 0.453125 0.515625 C 0.535156 0.734375 0.597656 0.945312 0.640625 1.15625 C 0.691406 1.375 0.800781 1.566406 0.96875 1.734375 C 1.132812 1.898438 1.398438 2.019531 1.765625 2.09375 C 3.742188 2.507812 5.71875 2.921875 7.6875 3.328125 C 9.664062 3.742188 11.640625 4.15625 13.609375 4.5625 C 13.953125 4.632812 14.195312 4.71875 14.34375 4.8125 C 14.5 4.90625 14.582031 5.140625 14.59375 5.515625 L 3.71875 12.78125 C 3.4375 12.988281 3.257812 13.191406 3.1875 13.390625 C 3.125 13.597656 3.109375 13.804688 3.140625 14.015625 C 3.171875 14.222656 3.191406 14.441406 3.203125 14.671875 Z M 4.296875 3.1875 L 5.53125 9.609375 C 6.625 8.867188 7.710938 8.128906 8.796875 7.390625 C 9.878906 6.660156 10.96875 5.929688 12.0625 5.203125 C 12.351562 5.003906 12.328125 4.875 11.984375 4.8125 Z M 4.296875 3.1875 "/></g></g></g><g fill="#262728" fill-opacity="1"><g transform="translate(108.83646, 226.634854)"><g><path d="M 9.5 2.375 L 8.390625 3 C 8.347656 3.019531 8.3125 3.003906 8.28125 2.953125 C 8.25 2.898438 8.25 2.847656 8.28125 2.796875 C 8.5 2.640625 8.65625 2.476562 8.75 2.3125 C 8.84375 2.144531 8.867188 1.941406 8.828125 1.703125 C 8.796875 1.472656 8.6875 1.164062 8.5 0.78125 L 7.6875 -0.90625 C 7.613281 -1.039062 7.523438 -1.140625 7.421875 -1.203125 C 7.316406 -1.273438 7.171875 -1.265625 6.984375 -1.171875 L 4.265625 0.140625 L 5.296875 2.28125 C 5.460938 2.625 5.644531 2.8125 5.84375 2.84375 C 6.039062 2.875 6.21875 2.859375 6.375 2.796875 C 6.4375 2.765625 6.484375 2.78125 6.515625 2.84375 C 6.546875 2.90625 6.53125 2.953125 6.46875 2.984375 L 4.875 3.75 C 4.832031 3.769531 4.789062 3.75 4.75 3.6875 C 4.71875 3.632812 4.726562 3.59375 4.78125 3.5625 C 4.945312 3.476562 5.078125 3.347656 5.171875 3.171875 C 5.265625 2.992188 5.226562 2.734375 5.0625 2.390625 L 4.03125 0.25 L 1.640625 1.40625 C 1.453125 1.5 1.335938 1.59375 1.296875 1.6875 C 1.265625 1.78125 1.265625 1.878906 1.296875 1.984375 C 1.328125 2.097656 1.363281 2.21875 1.40625 2.34375 C 1.425781 2.394531 1.410156 2.429688 1.359375 2.453125 C 1.304688 2.484375 1.269531 2.472656 1.25 2.421875 L 0.21875 0.28125 C 0.1875 0.21875 0.195312 0.171875 0.25 0.140625 C 0.300781 0.117188 0.34375 0.140625 0.375 0.203125 C 0.445312 0.316406 0.515625 0.414062 0.578125 0.5 C 0.640625 0.59375 0.71875 0.65625 0.8125 0.6875 C 0.914062 0.726562 1.0625 0.703125 1.25 0.609375 L 6.578125 -1.953125 C 6.773438 -2.054688 6.890625 -2.15625 6.921875 -2.25 C 6.953125 -2.34375 6.945312 -2.4375 6.90625 -2.53125 C 6.863281 -2.632812 6.828125 -2.753906 6.796875 -2.890625 C 6.785156 -2.960938 6.804688 -3.007812 6.859375 -3.03125 C 6.910156 -3.0625 6.953125 -3.046875 6.984375 -2.984375 L 9.515625 2.28125 C 9.535156 2.320312 9.53125 2.351562 9.5 2.375 Z M 9.5 2.375 "/></g></g></g><g fill="#262728" fill-opacity="1"><g transform="translate(113.223312, 235.408379)"><g><path d="M 10.765625 2.75 C 10.796875 2.800781 10.785156 2.84375 10.734375 2.875 C 10.691406 2.914062 10.644531 2.914062 10.59375 2.875 C 10.519531 2.78125 10.4375 2.675781 10.34375 2.5625 C 10.25 2.445312 10.144531 2.367188 10.03125 2.328125 C 9.925781 2.285156 9.785156 2.328125 9.609375 2.453125 L 6.28125 4.609375 C 5.875 4.867188 5.46875 5.023438 5.0625 5.078125 C 4.664062 5.128906 4.285156 5.097656 3.921875 4.984375 C 3.554688 4.867188 3.222656 4.6875 2.921875 4.4375 C 2.617188 4.195312 2.363281 3.914062 2.15625 3.59375 C 1.9375 3.257812 1.78125 2.90625 1.6875 2.53125 C 1.59375 2.15625 1.566406 1.773438 1.609375 1.390625 C 1.648438 1.015625 1.773438 0.65625 1.984375 0.3125 C 2.203125 -0.0195312 2.515625 -0.316406 2.921875 -0.578125 L 6.25 -2.734375 C 6.425781 -2.859375 6.519531 -2.96875 6.53125 -3.0625 C 6.550781 -3.164062 6.539062 -3.265625 6.5 -3.359375 C 6.457031 -3.460938 6.40625 -3.578125 6.34375 -3.703125 C 6.320312 -3.765625 6.335938 -3.8125 6.390625 -3.84375 C 6.441406 -3.875 6.484375 -3.863281 6.515625 -3.8125 L 7.8125 -1.8125 C 7.84375 -1.757812 7.832031 -1.71875 7.78125 -1.6875 C 7.726562 -1.65625 7.679688 -1.65625 7.640625 -1.6875 C 7.554688 -1.789062 7.472656 -1.890625 7.390625 -1.984375 C 7.316406 -2.078125 7.234375 -2.128906 7.140625 -2.140625 C 7.046875 -2.160156 6.910156 -2.109375 6.734375 -1.984375 L 3.40625 0.171875 C 2.9375 0.472656 2.613281 0.820312 2.4375 1.21875 C 2.257812 1.625 2.195312 2.03125 2.25 2.4375 C 2.300781 2.851562 2.4375 3.234375 2.65625 3.578125 C 2.882812 3.929688 3.179688 4.21875 3.546875 4.4375 C 3.910156 4.664062 4.3125 4.773438 4.75 4.765625 C 5.195312 4.765625 5.648438 4.617188 6.109375 4.328125 L 9.453125 2.15625 C 9.617188 2.039062 9.703125 1.925781 9.703125 1.8125 C 9.710938 1.695312 9.691406 1.582031 9.640625 1.46875 C 9.585938 1.351562 9.53125 1.234375 9.46875 1.109375 C 9.4375 1.046875 9.445312 1 9.5 0.96875 C 9.5625 0.945312 9.609375 0.957031 9.640625 1 Z M 10.765625 2.75 "/></g></g></g><g fill="#262728" fill-opacity="1"><g transform="translate(119.819672, 245.123274)"><g><path d="M 5.34375 3.859375 C 5.40625 3.828125 5.453125 3.832031 5.484375 3.875 C 5.515625 3.925781 5.507812 3.972656 5.46875 4.015625 L 4.328125 4.90625 C 4.296875 4.925781 4.257812 4.914062 4.21875 4.875 L 0.265625 0.21875 C 0.222656 0.164062 0.222656 0.117188 0.265625 0.078125 C 0.304688 0.046875 0.351562 0.0546875 0.40625 0.109375 C 0.519531 0.191406 0.613281 0.269531 0.6875 0.34375 C 0.769531 0.414062 0.863281 0.453125 0.96875 0.453125 C 1.070312 0.460938 1.203125 0.398438 1.359375 0.265625 L 5.875 -3.5625 C 6.039062 -3.695312 6.125 -3.8125 6.125 -3.90625 C 6.132812 -4.007812 6.109375 -4.101562 6.046875 -4.1875 C 5.984375 -4.28125 5.914062 -4.382812 5.84375 -4.5 C 5.8125 -4.570312 5.816406 -4.625 5.859375 -4.65625 C 5.910156 -4.695312 5.957031 -4.691406 6 -4.640625 L 7.546875 -2.828125 C 7.578125 -2.785156 7.566406 -2.742188 7.515625 -2.703125 C 7.472656 -2.671875 7.429688 -2.664062 7.390625 -2.6875 C 7.273438 -2.78125 7.175781 -2.867188 7.09375 -2.953125 C 7.019531 -3.035156 6.9375 -3.078125 6.84375 -3.078125 C 6.75 -3.085938 6.617188 -3.023438 6.453125 -2.890625 L 1.90625 0.96875 C 1.769531 1.082031 1.703125 1.191406 1.703125 1.296875 C 1.703125 1.410156 1.738281 1.515625 1.8125 1.609375 L 3.265625 3.34375 C 3.535156 3.65625 3.78125 3.863281 4 3.96875 C 4.21875 4.082031 4.4375 4.117188 4.65625 4.078125 C 4.882812 4.046875 5.113281 3.972656 5.34375 3.859375 Z M 5.34375 3.859375 "/></g></g></g><g fill="#262728" fill-opacity="1"><g transform="translate(126.630794, 252.849645)"><g><path d="M 5.765625 3.1875 C 5.828125 3.144531 5.875 3.144531 5.90625 3.1875 C 5.945312 3.238281 5.953125 3.285156 5.921875 3.328125 L 4.890625 4.359375 C 4.867188 4.390625 4.832031 4.382812 4.78125 4.34375 L 0.296875 0.1875 C 0.253906 0.144531 0.25 0.101562 0.28125 0.0625 C 0.320312 0.0195312 0.367188 0.015625 0.421875 0.046875 C 0.535156 0.128906 0.632812 0.203125 0.71875 0.265625 C 0.8125 0.328125 0.910156 0.351562 1.015625 0.34375 C 1.117188 0.332031 1.238281 0.253906 1.375 0.109375 L 5.40625 -4.25 C 5.550781 -4.40625 5.617188 -4.53125 5.609375 -4.625 C 5.609375 -4.71875 5.570312 -4.804688 5.5 -4.890625 C 5.425781 -4.972656 5.347656 -5.066406 5.265625 -5.171875 C 5.234375 -5.234375 5.234375 -5.285156 5.265625 -5.328125 C 5.304688 -5.367188 5.347656 -5.367188 5.390625 -5.328125 L 7.140625 -3.71875 C 7.179688 -3.675781 7.179688 -3.632812 7.140625 -3.59375 C 7.109375 -3.550781 7.066406 -3.539062 7.015625 -3.5625 C 6.890625 -3.644531 6.78125 -3.71875 6.6875 -3.78125 C 6.601562 -3.851562 6.507812 -3.882812 6.40625 -3.875 C 6.3125 -3.875 6.191406 -3.796875 6.046875 -3.640625 L 2 0.734375 C 1.875 0.867188 1.816406 0.988281 1.828125 1.09375 C 1.847656 1.195312 1.898438 1.300781 1.984375 1.40625 L 3.640625 2.9375 C 3.953125 3.21875 4.222656 3.394531 4.453125 3.46875 C 4.679688 3.550781 4.90625 3.554688 5.125 3.484375 C 5.34375 3.421875 5.554688 3.320312 5.765625 3.1875 Z M 5.765625 3.1875 "/></g></g></g><g fill="#262728" fill-opacity="1"><g transform="translate(134.320437, 259.700508)"><g><path d="M 5.296875 -1.6875 C 5.566406 -1.40625 5.835938 -1.101562 6.109375 -0.78125 C 6.378906 -0.46875 6.601562 -0.144531 6.78125 0.1875 C 6.957031 0.53125 7.050781 0.875 7.0625 1.21875 C 7.082031 1.570312 6.960938 1.925781 6.703125 2.28125 C 6.398438 2.707031 6.03125 2.96875 5.59375 3.0625 C 5.164062 3.15625 4.710938 3.117188 4.234375 2.953125 C 3.765625 2.796875 3.316406 2.5625 2.890625 2.25 C 2.347656 1.863281 1.921875 1.445312 1.609375 1 C 1.296875 0.5625 1.066406 0.0078125 0.921875 -0.65625 C 0.898438 -0.800781 0.9375 -0.898438 1.03125 -0.953125 C 1.125 -1.003906 1.203125 -1.003906 1.265625 -0.953125 C 1.335938 -0.910156 1.375 -0.828125 1.375 -0.703125 C 1.375 -0.347656 1.441406 0 1.578125 0.34375 C 1.722656 0.6875 1.914062 0.992188 2.15625 1.265625 C 2.394531 1.546875 2.644531 1.773438 2.90625 1.953125 C 3.28125 2.210938 3.664062 2.375 4.0625 2.4375 C 4.457031 2.507812 4.816406 2.492188 5.140625 2.390625 C 5.472656 2.296875 5.722656 2.125 5.890625 1.875 C 6.054688 1.632812 6.109375 1.335938 6.046875 0.984375 C 5.984375 0.628906 5.765625 0.234375 5.390625 -0.203125 C 5.128906 -0.503906 4.851562 -0.816406 4.5625 -1.140625 C 4.269531 -1.460938 4.015625 -1.785156 3.796875 -2.109375 C 3.578125 -2.441406 3.445312 -2.78125 3.40625 -3.125 C 3.375 -3.476562 3.484375 -3.820312 3.734375 -4.15625 C 4.015625 -4.550781 4.359375 -4.796875 4.765625 -4.890625 C 5.171875 -4.992188 5.585938 -4.976562 6.015625 -4.84375 C 6.453125 -4.707031 6.863281 -4.503906 7.25 -4.234375 C 7.6875 -3.910156 8.054688 -3.53125 8.359375 -3.09375 C 8.460938 -2.945312 8.566406 -2.769531 8.671875 -2.5625 L 8.703125 -2.546875 C 8.742188 -2.429688 8.78125 -2.320312 8.8125 -2.21875 C 8.84375 -2.125 8.851562 -2.03125 8.84375 -1.9375 C 8.863281 -1.664062 8.800781 -1.492188 8.65625 -1.421875 C 8.519531 -1.347656 8.394531 -1.351562 8.28125 -1.4375 C 8.226562 -1.476562 8.179688 -1.53125 8.140625 -1.59375 C 8.109375 -1.65625 8.097656 -1.734375 8.109375 -1.828125 C 8.117188 -1.953125 8.144531 -2.066406 8.1875 -2.171875 C 8.238281 -2.285156 8.265625 -2.410156 8.265625 -2.546875 C 8.265625 -2.691406 8.195312 -2.875 8.0625 -3.09375 C 7.820312 -3.425781 7.519531 -3.722656 7.15625 -3.984375 C 6.863281 -4.191406 6.5625 -4.347656 6.25 -4.453125 C 5.9375 -4.554688 5.640625 -4.578125 5.359375 -4.515625 C 5.085938 -4.453125 4.851562 -4.28125 4.65625 -4 C 4.539062 -3.84375 4.460938 -3.660156 4.421875 -3.453125 C 4.390625 -3.242188 4.4375 -3 4.5625 -2.71875 C 4.6875 -2.4375 4.929688 -2.09375 5.296875 -1.6875 Z M 5.296875 -1.6875 "/></g></g></g><g fill="#262728" fill-opacity="1"><g transform="translate(142.712581, 265.553908)"><g><path d="M 9.796875 -3.109375 L 9.171875 -1.859375 C 9.160156 -1.816406 9.125 -1.804688 9.0625 -1.828125 C 9 -1.859375 8.976562 -1.90625 9 -1.96875 C 9.070312 -2.207031 9.128906 -2.398438 9.171875 -2.546875 C 9.222656 -2.703125 9.226562 -2.835938 9.1875 -2.953125 C 9.144531 -3.078125 9.050781 -3.195312 8.90625 -3.3125 C 8.757812 -3.4375 8.535156 -3.582031 8.234375 -3.75 L 7.609375 -4.09375 C 7.472656 -4.175781 7.34375 -4.210938 7.21875 -4.203125 C 7.09375 -4.191406 6.976562 -4.09375 6.875 -3.90625 L 4 1.296875 C 3.894531 1.484375 3.851562 1.628906 3.875 1.734375 C 3.90625 1.835938 3.96875 1.914062 4.0625 1.96875 C 4.164062 2.03125 4.269531 2.101562 4.375 2.1875 C 4.425781 2.21875 4.429688 2.265625 4.390625 2.328125 C 4.359375 2.390625 4.316406 2.40625 4.265625 2.375 L 2.203125 1.234375 C 2.140625 1.203125 2.125 1.15625 2.15625 1.09375 C 2.1875 1.03125 2.222656 1.007812 2.265625 1.03125 C 2.398438 1.070312 2.519531 1.117188 2.625 1.171875 C 2.726562 1.222656 2.828125 1.226562 2.921875 1.1875 C 3.015625 1.15625 3.113281 1.046875 3.21875 0.859375 L 6.09375 -4.34375 C 6.195312 -4.53125 6.21875 -4.675781 6.15625 -4.78125 C 6.101562 -4.894531 6.015625 -4.984375 5.890625 -5.046875 L 5.25 -5.40625 C 4.945312 -5.570312 4.707031 -5.679688 4.53125 -5.734375 C 4.351562 -5.796875 4.203125 -5.8125 4.078125 -5.78125 C 3.960938 -5.75 3.847656 -5.675781 3.734375 -5.5625 C 3.628906 -5.445312 3.492188 -5.289062 3.328125 -5.09375 C 3.296875 -5.039062 3.25 -5.035156 3.1875 -5.078125 C 3.132812 -5.117188 3.125 -5.15625 3.15625 -5.1875 L 3.890625 -6.375 C 3.910156 -6.414062 3.941406 -6.425781 3.984375 -6.40625 L 9.75 -3.21875 C 9.800781 -3.1875 9.816406 -3.148438 9.796875 -3.109375 Z M 9.796875 -3.109375 "/></g></g></g><g fill="#262728" fill-opacity="1"><g transform="translate(152.091253, 270.551939)"><g><path d="M 8.046875 2.953125 C 8.097656 2.960938 8.113281 2.988281 8.09375 3.03125 C 8.082031 3.070312 8.046875 3.082031 7.984375 3.0625 C 7.847656 3.007812 7.722656 2.960938 7.609375 2.921875 C 7.503906 2.878906 7.390625 2.832031 7.265625 2.78125 L 7.265625 2.765625 L 6.390625 2.421875 L 6.390625 2.4375 C 6.265625 2.394531 6.140625 2.347656 6.015625 2.296875 C 5.890625 2.242188 5.75 2.1875 5.59375 2.125 C 5.53125 2.101562 5.503906 2.070312 5.515625 2.03125 C 5.535156 1.988281 5.570312 1.976562 5.625 2 C 5.769531 2.019531 5.894531 2.046875 6 2.078125 C 6.113281 2.117188 6.203125 2.117188 6.265625 2.078125 C 6.335938 2.035156 6.367188 1.921875 6.359375 1.734375 C 6.367188 1.535156 6.375 1.335938 6.375 1.140625 C 6.375 0.941406 6.363281 0.742188 6.34375 0.546875 L 2.65625 -0.890625 L 1.828125 -0.046875 C 1.691406 0.0976562 1.648438 0.210938 1.703125 0.296875 C 1.765625 0.390625 1.863281 0.460938 2 0.515625 C 2.132812 0.578125 2.253906 0.644531 2.359375 0.71875 C 2.421875 0.75 2.441406 0.785156 2.421875 0.828125 C 2.410156 0.867188 2.367188 0.875 2.296875 0.84375 C 2.160156 0.789062 1.992188 0.722656 1.796875 0.640625 C 1.609375 0.566406 1.453125 0.507812 1.328125 0.46875 L 1.328125 0.453125 L 1.0625 0.34375 L 1.0625 0.359375 C 0.945312 0.316406 0.832031 0.273438 0.71875 0.234375 C 0.613281 0.191406 0.484375 0.140625 0.328125 0.078125 C 0.285156 0.0546875 0.269531 0.0234375 0.28125 -0.015625 C 0.289062 -0.0546875 0.320312 -0.0664062 0.375 -0.046875 C 0.519531 -0.0234375 0.648438 0 0.765625 0.03125 C 0.878906 0.0703125 1.003906 0.078125 1.140625 0.046875 C 1.273438 0.0234375 1.414062 -0.0625 1.5625 -0.21875 C 2.363281 -1.039062 3.160156 -1.863281 3.953125 -2.6875 C 4.753906 -3.519531 5.550781 -4.351562 6.34375 -5.1875 C 6.5 -5.320312 6.625 -5.410156 6.71875 -5.453125 C 6.8125 -5.503906 6.941406 -5.472656 7.109375 -5.359375 L 7.3125 2.09375 C 7.320312 2.289062 7.363281 2.4375 7.4375 2.53125 C 7.519531 2.632812 7.613281 2.707031 7.71875 2.75 C 7.832031 2.800781 7.941406 2.867188 8.046875 2.953125 Z M 2.84375 -1.109375 L 6.328125 0.25 C 6.304688 -0.488281 6.285156 -1.234375 6.265625 -1.984375 C 6.242188 -2.734375 6.21875 -3.484375 6.1875 -4.234375 C 6.1875 -4.441406 6.113281 -4.472656 5.96875 -4.328125 Z M 2.84375 -1.109375 "/></g></g></g><g fill="#262728" fill-opacity="1"><g transform="translate(163.50207, 274.729085)"><g><path d="M 7.21875 0.234375 C 7.3125 0.148438 7.398438 0.117188 7.484375 0.140625 C 7.578125 0.160156 7.632812 0.210938 7.65625 0.296875 C 7.675781 0.378906 7.640625 0.457031 7.546875 0.53125 C 7.117188 0.84375 6.632812 1.0625 6.09375 1.1875 C 5.550781 1.320312 4.925781 1.304688 4.21875 1.140625 C 3.457031 0.953125 2.835938 0.648438 2.359375 0.234375 C 1.878906 -0.171875 1.53125 -0.632812 1.3125 -1.15625 C 1.09375 -1.6875 0.992188 -2.238281 1.015625 -2.8125 C 1.046875 -3.382812 1.179688 -3.925781 1.421875 -4.4375 C 1.660156 -4.957031 2 -5.40625 2.4375 -5.78125 C 2.875 -6.164062 3.394531 -6.425781 4 -6.5625 C 4.613281 -6.707031 5.300781 -6.6875 6.0625 -6.5 C 6.363281 -6.425781 6.640625 -6.332031 6.890625 -6.21875 C 7.148438 -6.113281 7.378906 -5.992188 7.578125 -5.859375 C 7.691406 -5.804688 7.816406 -5.71875 7.953125 -5.59375 C 8.085938 -5.476562 8.210938 -5.351562 8.328125 -5.21875 C 8.453125 -5.082031 8.539062 -4.96875 8.59375 -4.875 C 8.695312 -4.6875 8.726562 -4.523438 8.6875 -4.390625 C 8.644531 -4.265625 8.570312 -4.171875 8.46875 -4.109375 C 8.363281 -4.054688 8.253906 -4.046875 8.140625 -4.078125 C 8.066406 -4.085938 7.988281 -4.125 7.90625 -4.1875 C 7.820312 -4.257812 7.765625 -4.367188 7.734375 -4.515625 C 7.710938 -4.628906 7.707031 -4.742188 7.71875 -4.859375 C 7.726562 -4.984375 7.703125 -5.113281 7.640625 -5.25 C 7.585938 -5.394531 7.441406 -5.554688 7.203125 -5.734375 C 7.035156 -5.847656 6.84375 -5.941406 6.625 -6.015625 C 6.414062 -6.097656 6.207031 -6.160156 6 -6.203125 C 5.4375 -6.335938 4.914062 -6.328125 4.4375 -6.171875 C 3.96875 -6.015625 3.554688 -5.753906 3.203125 -5.390625 C 2.847656 -5.035156 2.566406 -4.617188 2.359375 -4.140625 C 2.160156 -3.660156 2.039062 -3.160156 2 -2.640625 C 1.957031 -2.117188 2.007812 -1.617188 2.15625 -1.140625 C 2.300781 -0.660156 2.550781 -0.25 2.90625 0.09375 C 3.257812 0.445312 3.722656 0.695312 4.296875 0.84375 C 4.835938 0.96875 5.289062 1.007812 5.65625 0.96875 C 6.019531 0.925781 6.320312 0.832031 6.5625 0.6875 C 6.8125 0.550781 7.03125 0.398438 7.21875 0.234375 Z M 7.21875 0.234375 "/></g></g></g><g fill="#262728" fill-opacity="1"><g transform="translate(174.257749, 277.122773)"><g><path d="M 7.765625 -1.84375 C 7.929688 -1.832031 8.039062 -1.757812 8.09375 -1.625 C 8.15625 -1.488281 8.1875 -1.335938 8.1875 -1.171875 C 8.1875 -1.003906 8.175781 -0.859375 8.15625 -0.734375 C 8.125 -0.460938 8.046875 -0.207031 7.921875 0.03125 C 7.796875 0.28125 7.617188 0.472656 7.390625 0.609375 C 7.160156 0.753906 6.878906 0.804688 6.546875 0.765625 C 6.273438 0.742188 6.023438 0.628906 5.796875 0.421875 C 5.578125 0.222656 5.367188 -0.0234375 5.171875 -0.328125 C 4.984375 -0.640625 4.796875 -0.957031 4.609375 -1.28125 C 4.429688 -1.613281 4.242188 -1.929688 4.046875 -2.234375 C 3.859375 -2.546875 3.65625 -2.804688 3.4375 -3.015625 C 3.21875 -3.234375 2.976562 -3.351562 2.71875 -3.375 C 2.644531 -3.382812 2.601562 -3.414062 2.59375 -3.46875 C 2.582031 -3.519531 2.585938 -3.570312 2.609375 -3.625 C 2.640625 -3.675781 2.691406 -3.695312 2.765625 -3.6875 C 2.835938 -3.664062 2.878906 -3.648438 2.890625 -3.640625 C 2.898438 -3.628906 2.945312 -3.617188 3.03125 -3.609375 C 3.394531 -3.578125 3.757812 -3.625 4.125 -3.75 C 4.5 -3.875 4.847656 -4.054688 5.171875 -4.296875 C 5.492188 -4.546875 5.785156 -4.828125 6.046875 -5.140625 C 6.304688 -5.460938 6.507812 -5.789062 6.65625 -6.125 C 6.707031 -6.289062 6.710938 -6.410156 6.671875 -6.484375 C 6.628906 -6.566406 6.550781 -6.625 6.4375 -6.65625 C 6.332031 -6.695312 6.21875 -6.734375 6.09375 -6.765625 C 6.03125 -6.796875 6.003906 -6.835938 6.015625 -6.890625 C 6.023438 -6.953125 6.0625 -6.976562 6.125 -6.96875 L 8.359375 -6.734375 C 8.421875 -6.722656 8.453125 -6.6875 8.453125 -6.625 C 8.453125 -6.570312 8.421875 -6.539062 8.359375 -6.53125 C 8.140625 -6.519531 7.96875 -6.488281 7.84375 -6.4375 C 7.726562 -6.394531 7.632812 -6.300781 7.5625 -6.15625 L 7.578125 -6.171875 C 7.410156 -5.691406 7.128906 -5.25 6.734375 -4.84375 C 6.335938 -4.4375 5.894531 -4.101562 5.40625 -3.84375 C 4.925781 -3.59375 4.453125 -3.429688 3.984375 -3.359375 C 4.273438 -3.273438 4.519531 -3.101562 4.71875 -2.84375 C 4.925781 -2.582031 5.117188 -2.285156 5.296875 -1.953125 C 5.472656 -1.628906 5.644531 -1.304688 5.8125 -0.984375 C 5.988281 -0.671875 6.175781 -0.398438 6.375 -0.171875 C 6.582031 0.046875 6.816406 0.164062 7.078125 0.1875 C 7.285156 0.21875 7.453125 0.171875 7.578125 0.046875 C 7.703125 -0.078125 7.773438 -0.222656 7.796875 -0.390625 C 7.828125 -0.566406 7.789062 -0.726562 7.6875 -0.875 C 7.59375 -1.007812 7.503906 -1.113281 7.421875 -1.1875 C 7.347656 -1.257812 7.316406 -1.359375 7.328125 -1.484375 C 7.335938 -1.617188 7.390625 -1.710938 7.484375 -1.765625 C 7.578125 -1.828125 7.671875 -1.851562 7.765625 -1.84375 Z M 2.734375 0.03125 C 2.796875 0.0507812 2.820312 0.0859375 2.8125 0.140625 C 2.800781 0.203125 2.765625 0.226562 2.703125 0.21875 L 0.34375 -0.03125 C 0.289062 -0.03125 0.265625 -0.0546875 0.265625 -0.109375 C 0.273438 -0.171875 0.3125 -0.207031 0.375 -0.21875 C 0.507812 -0.21875 0.632812 -0.21875 0.75 -0.21875 C 0.863281 -0.226562 0.957031 -0.265625 1.03125 -0.328125 C 1.113281 -0.398438 1.164062 -0.539062 1.1875 -0.75 L 1.8125 -6.640625 C 1.832031 -6.847656 1.8125 -6.988281 1.75 -7.0625 C 1.6875 -7.132812 1.597656 -7.179688 1.484375 -7.203125 C 1.367188 -7.222656 1.25 -7.253906 1.125 -7.296875 C 1.0625 -7.316406 1.035156 -7.351562 1.046875 -7.40625 C 1.054688 -7.46875 1.085938 -7.5 1.140625 -7.5 L 3.5 -7.25 C 3.5625 -7.238281 3.585938 -7.203125 3.578125 -7.140625 C 3.578125 -7.085938 3.546875 -7.054688 3.484375 -7.046875 C 3.347656 -7.035156 3.222656 -7.03125 3.109375 -7.03125 C 2.992188 -7.03125 2.898438 -7 2.828125 -6.9375 C 2.753906 -6.882812 2.707031 -6.753906 2.6875 -6.546875 L 2.0625 -0.65625 C 2.039062 -0.445312 2.054688 -0.300781 2.109375 -0.21875 C 2.171875 -0.132812 2.257812 -0.078125 2.375 -0.046875 C 2.488281 -0.0234375 2.609375 0 2.734375 0.03125 Z M 2.734375 0.03125 "/></g></g></g><g fill="#262728" fill-opacity="1"><g transform="translate(185.680555, 278.024488)"><g/></g></g><g fill="#262728" fill-opacity="1"><g transform="translate(191.496494, 278.030083)"><g><path d="M 2.8125 -7.890625 C 3.65625 -7.972656 4.382812 -7.90625 5 -7.6875 C 5.625 -7.476562 6.140625 -7.164062 6.546875 -6.75 C 6.953125 -6.332031 7.238281 -5.867188 7.40625 -5.359375 C 7.570312 -4.847656 7.617188 -4.316406 7.546875 -3.765625 C 7.484375 -3.210938 7.296875 -2.695312 6.984375 -2.21875 C 6.671875 -1.75 6.226562 -1.347656 5.65625 -1.015625 C 5.09375 -0.691406 4.390625 -0.488281 3.546875 -0.40625 L 0.34375 -0.09375 C 0.28125 -0.09375 0.242188 -0.117188 0.234375 -0.171875 C 0.234375 -0.234375 0.257812 -0.269531 0.3125 -0.28125 C 0.445312 -0.3125 0.566406 -0.335938 0.671875 -0.359375 C 0.785156 -0.390625 0.875 -0.445312 0.9375 -0.53125 C 1 -0.613281 1.019531 -0.757812 1 -0.96875 C 0.957031 -1.363281 0.910156 -1.8125 0.859375 -2.3125 C 0.816406 -2.820312 0.765625 -3.351562 0.703125 -3.90625 C 0.648438 -4.457031 0.597656 -4.988281 0.546875 -5.5 C 0.503906 -6.007812 0.460938 -6.460938 0.421875 -6.859375 C 0.398438 -7.078125 0.351562 -7.210938 0.28125 -7.265625 C 0.207031 -7.328125 0.113281 -7.359375 0 -7.359375 C -0.101562 -7.359375 -0.222656 -7.363281 -0.359375 -7.375 C -0.429688 -7.394531 -0.46875 -7.429688 -0.46875 -7.484375 C -0.476562 -7.546875 -0.453125 -7.578125 -0.390625 -7.578125 Z M 3.3125 -0.640625 C 4.019531 -0.703125 4.613281 -0.882812 5.09375 -1.1875 C 5.570312 -1.488281 5.941406 -1.859375 6.203125 -2.296875 C 6.472656 -2.734375 6.632812 -3.207031 6.6875 -3.71875 C 6.738281 -4.226562 6.6875 -4.722656 6.53125 -5.203125 C 6.375 -5.679688 6.125 -6.113281 5.78125 -6.5 C 5.4375 -6.882812 5.003906 -7.179688 4.484375 -7.390625 C 3.960938 -7.597656 3.347656 -7.671875 2.640625 -7.609375 L 1.796875 -7.515625 C 1.640625 -7.503906 1.507812 -7.457031 1.40625 -7.375 C 1.3125 -7.300781 1.273438 -7.160156 1.296875 -6.953125 L 1.875 -1.015625 C 1.894531 -0.804688 1.960938 -0.671875 2.078125 -0.609375 C 2.191406 -0.554688 2.320312 -0.535156 2.46875 -0.546875 Z M 3.3125 -0.640625 "/></g></g></g><g fill="#262728" fill-opacity="1"><g transform="translate(202.865547, 276.684988)"><g><path d="M 5.9375 -2.75 C 5.9375 -2.8125 5.96875 -2.847656 6.03125 -2.859375 C 6.09375 -2.867188 6.128906 -2.847656 6.140625 -2.796875 L 6.359375 -1.5625 C 6.367188 -1.519531 6.34375 -1.492188 6.28125 -1.484375 L 0.3125 -0.140625 C 0.257812 -0.128906 0.226562 -0.148438 0.21875 -0.203125 C 0.207031 -0.265625 0.222656 -0.304688 0.265625 -0.328125 C 0.398438 -0.378906 0.519531 -0.421875 0.625 -0.453125 C 0.726562 -0.484375 0.800781 -0.539062 0.84375 -0.625 C 0.894531 -0.71875 0.898438 -0.867188 0.859375 -1.078125 L -0.453125 -6.84375 C -0.492188 -7.0625 -0.550781 -7.195312 -0.625 -7.25 C -0.707031 -7.300781 -0.800781 -7.316406 -0.90625 -7.296875 C -1.019531 -7.285156 -1.148438 -7.273438 -1.296875 -7.265625 C -1.347656 -7.273438 -1.378906 -7.304688 -1.390625 -7.359375 C -1.410156 -7.421875 -1.394531 -7.457031 -1.34375 -7.46875 L 4.359375 -8.75 C 4.410156 -8.757812 4.441406 -8.75 4.453125 -8.71875 L 4.8125 -7.5 C 4.820312 -7.445312 4.789062 -7.410156 4.71875 -7.390625 C 4.65625 -7.378906 4.613281 -7.394531 4.59375 -7.4375 C 4.476562 -7.6875 4.347656 -7.875 4.203125 -8 C 4.066406 -8.125 3.878906 -8.195312 3.640625 -8.21875 C 3.398438 -8.238281 3.078125 -8.203125 2.671875 -8.109375 L 0.84375 -7.6875 C 0.6875 -7.65625 0.566406 -7.59375 0.484375 -7.5 C 0.398438 -7.414062 0.378906 -7.269531 0.421875 -7.0625 L 1.09375 -4.125 L 3.421875 -4.640625 C 3.785156 -4.722656 4.007812 -4.851562 4.09375 -5.03125 C 4.175781 -5.21875 4.203125 -5.40625 4.171875 -5.59375 C 4.160156 -5.65625 4.1875 -5.691406 4.25 -5.703125 C 4.3125 -5.710938 4.347656 -5.6875 4.359375 -5.625 L 4.75 -3.90625 C 4.757812 -3.851562 4.734375 -3.816406 4.671875 -3.796875 C 4.609375 -3.785156 4.570312 -3.8125 4.5625 -3.875 C 4.507812 -4.03125 4.40625 -4.171875 4.25 -4.296875 C 4.09375 -4.429688 3.832031 -4.457031 3.46875 -4.375 L 1.140625 -3.859375 L 1.734375 -1.25 C 1.773438 -1.070312 1.84375 -0.953125 1.9375 -0.890625 C 2.039062 -0.835938 2.148438 -0.820312 2.265625 -0.84375 L 4.59375 -1.375 C 5 -1.457031 5.300781 -1.554688 5.5 -1.671875 C 5.695312 -1.785156 5.816406 -1.925781 5.859375 -2.09375 C 5.910156 -2.269531 5.9375 -2.488281 5.9375 -2.75 Z M 5.9375 -2.75 "/></g></g></g><g fill="#262728" fill-opacity="1"><g transform="translate(212.667867, 274.32648)"><g><path d="M 5.46875 -10.03125 C 5.53125 -10.050781 5.570312 -10.035156 5.59375 -9.984375 C 5.613281 -9.929688 5.597656 -9.882812 5.546875 -9.84375 C 5.429688 -9.78125 5.3125 -9.71875 5.1875 -9.65625 C 5.070312 -9.601562 4.972656 -9.519531 4.890625 -9.40625 C 4.804688 -9.289062 4.753906 -9.128906 4.734375 -8.921875 C 4.703125 -8.128906 4.664062 -7.3125 4.625 -6.46875 C 4.59375 -5.632812 4.5625 -4.800781 4.53125 -3.96875 C 4.5 -3.132812 4.460938 -2.335938 4.421875 -1.578125 C 4.273438 -1.460938 4.148438 -1.429688 4.046875 -1.484375 C 3.941406 -1.535156 3.816406 -1.628906 3.671875 -1.765625 L -1.015625 -6.828125 C -1.160156 -6.984375 -1.296875 -7.078125 -1.421875 -7.109375 C -1.554688 -7.140625 -1.6875 -7.132812 -1.8125 -7.09375 C -1.9375 -7.0625 -2.066406 -7.03125 -2.203125 -7 C -2.265625 -7 -2.300781 -7.023438 -2.3125 -7.078125 C -2.332031 -7.128906 -2.316406 -7.164062 -2.265625 -7.1875 L 0.15625 -8.0625 C 0.21875 -8.09375 0.257812 -8.082031 0.28125 -8.03125 C 0.300781 -7.976562 0.285156 -7.929688 0.234375 -7.890625 C 0.117188 -7.835938 0.015625 -7.785156 -0.078125 -7.734375 C -0.179688 -7.679688 -0.242188 -7.613281 -0.265625 -7.53125 C -0.285156 -7.445312 -0.226562 -7.335938 -0.09375 -7.203125 C 0.570312 -6.492188 1.238281 -5.773438 1.90625 -5.046875 C 2.582031 -4.328125 3.257812 -3.613281 3.9375 -2.90625 C 4 -2.832031 4.050781 -2.800781 4.09375 -2.8125 C 4.132812 -2.832031 4.160156 -2.894531 4.171875 -3 L 4.4375 -8.875 C 4.4375 -9.070312 4.390625 -9.1875 4.296875 -9.21875 C 4.210938 -9.257812 4.097656 -9.257812 3.953125 -9.21875 C 3.804688 -9.175781 3.664062 -9.132812 3.53125 -9.09375 C 3.476562 -9.101562 3.441406 -9.132812 3.421875 -9.1875 C 3.410156 -9.238281 3.429688 -9.273438 3.484375 -9.296875 Z M 5.46875 -10.03125 "/></g></g></g><g fill="#262728" fill-opacity="1"><g transform="translate(223.987425, 269.875211)"><g><path d="M 5.015625 -4.171875 C 5.003906 -4.234375 5.023438 -4.273438 5.078125 -4.296875 C 5.140625 -4.328125 5.179688 -4.320312 5.203125 -4.28125 L 5.734375 -3.140625 C 5.753906 -3.109375 5.738281 -3.078125 5.6875 -3.046875 L 0.265625 -0.21875 C 0.210938 -0.1875 0.171875 -0.191406 0.140625 -0.234375 C 0.117188 -0.285156 0.132812 -0.332031 0.1875 -0.375 C 0.300781 -0.457031 0.398438 -0.53125 0.484375 -0.59375 C 0.578125 -0.664062 0.632812 -0.75 0.65625 -0.84375 C 0.6875 -0.9375 0.65625 -1.078125 0.5625 -1.265625 L -2.1875 -6.515625 C -2.289062 -6.703125 -2.382812 -6.8125 -2.46875 -6.84375 C -2.5625 -6.875 -2.660156 -6.867188 -2.765625 -6.828125 C -2.867188 -6.785156 -2.988281 -6.738281 -3.125 -6.6875 C -3.1875 -6.675781 -3.226562 -6.695312 -3.25 -6.75 C -3.28125 -6.800781 -3.269531 -6.84375 -3.21875 -6.875 L 1.96875 -9.578125 C 2.007812 -9.609375 2.039062 -9.609375 2.0625 -9.578125 L 2.71875 -8.484375 C 2.75 -8.441406 2.734375 -8.398438 2.671875 -8.359375 C 2.609375 -8.328125 2.5625 -8.332031 2.53125 -8.375 C 2.351562 -8.582031 2.175781 -8.726562 2 -8.8125 C 1.832031 -8.894531 1.628906 -8.914062 1.390625 -8.875 C 1.160156 -8.832031 0.863281 -8.710938 0.5 -8.515625 L -1.15625 -7.65625 C -1.300781 -7.582031 -1.398438 -7.488281 -1.453125 -7.375 C -1.515625 -7.257812 -1.5 -7.109375 -1.40625 -6.921875 L 0 -4.25 L 2.109375 -5.359375 C 2.441406 -5.535156 2.625 -5.722656 2.65625 -5.921875 C 2.695312 -6.128906 2.675781 -6.3125 2.59375 -6.46875 C 2.5625 -6.519531 2.578125 -6.5625 2.640625 -6.59375 C 2.703125 -6.625 2.75 -6.613281 2.78125 -6.5625 L 3.59375 -5 C 3.613281 -4.945312 3.59375 -4.90625 3.53125 -4.875 C 3.476562 -4.84375 3.4375 -4.851562 3.40625 -4.90625 C 3.320312 -5.0625 3.1875 -5.179688 3 -5.265625 C 2.820312 -5.347656 2.566406 -5.300781 2.234375 -5.125 L 0.125 -4.015625 L 1.359375 -1.640625 C 1.441406 -1.484375 1.535156 -1.390625 1.640625 -1.359375 C 1.753906 -1.335938 1.863281 -1.351562 1.96875 -1.40625 L 4.09375 -2.515625 C 4.46875 -2.710938 4.726562 -2.882812 4.875 -3.03125 C 5.03125 -3.1875 5.109375 -3.351562 5.109375 -3.53125 C 5.117188 -3.71875 5.085938 -3.929688 5.015625 -4.171875 Z M 5.015625 -4.171875 "/></g></g></g><g fill="#262728" fill-opacity="1"><g transform="translate(232.81396, 265.054722)"><g><path d="M 4.375 -4.90625 C 4.363281 -4.96875 4.378906 -5.007812 4.421875 -5.03125 C 4.472656 -5.0625 4.515625 -5.054688 4.546875 -5.015625 L 5.328125 -3.8125 C 5.359375 -3.769531 5.347656 -3.726562 5.296875 -3.6875 L 0.25 -0.234375 C 0.195312 -0.203125 0.15625 -0.207031 0.125 -0.25 C 0.09375 -0.300781 0.0976562 -0.347656 0.140625 -0.390625 C 0.242188 -0.492188 0.332031 -0.582031 0.40625 -0.65625 C 0.488281 -0.726562 0.535156 -0.8125 0.546875 -0.90625 C 0.566406 -1.007812 0.519531 -1.144531 0.40625 -1.3125 L -2.9375 -6.203125 C -3.0625 -6.378906 -3.171875 -6.476562 -3.265625 -6.5 C -3.359375 -6.519531 -3.453125 -6.503906 -3.546875 -6.453125 C -3.648438 -6.398438 -3.765625 -6.335938 -3.890625 -6.265625 C -3.953125 -6.253906 -4 -6.269531 -4.03125 -6.3125 C -4.0625 -6.363281 -4.050781 -6.40625 -4 -6.4375 L -2.03125 -7.78125 C -1.988281 -7.820312 -1.953125 -7.816406 -1.921875 -7.765625 C -1.890625 -7.722656 -1.890625 -7.671875 -1.921875 -7.609375 C -2.023438 -7.523438 -2.117188 -7.445312 -2.203125 -7.375 C -2.285156 -7.300781 -2.335938 -7.210938 -2.359375 -7.109375 C -2.378906 -7.015625 -2.328125 -6.878906 -2.203125 -6.703125 L 1.15625 -1.796875 C 1.257812 -1.648438 1.363281 -1.566406 1.46875 -1.546875 C 1.582031 -1.535156 1.691406 -1.5625 1.796875 -1.625 L 3.671875 -2.90625 C 4.015625 -3.144531 4.25 -3.367188 4.375 -3.578125 C 4.5 -3.785156 4.550781 -4 4.53125 -4.21875 C 4.519531 -4.445312 4.46875 -4.675781 4.375 -4.90625 Z M 4.375 -4.90625 "/></g></g></g><g fill="#262728" fill-opacity="1"><g transform="translate(241.252421, 259.097788)"><g><path d="M -1.90625 -8.65625 C -1.394531 -9.113281 -0.875 -9.4375 -0.34375 -9.625 C 0.1875 -9.8125 0.703125 -9.878906 1.203125 -9.828125 C 1.710938 -9.773438 2.1875 -9.632812 2.625 -9.40625 C 3.070312 -9.175781 3.460938 -8.875 3.796875 -8.5 C 4.140625 -8.125 4.398438 -7.703125 4.578125 -7.234375 C 4.765625 -6.773438 4.851562 -6.289062 4.84375 -5.78125 C 4.84375 -5.28125 4.722656 -4.769531 4.484375 -4.25 C 4.253906 -3.738281 3.882812 -3.253906 3.375 -2.796875 C 2.863281 -2.328125 2.335938 -2 1.796875 -1.8125 C 1.265625 -1.632812 0.742188 -1.566406 0.234375 -1.609375 C -0.265625 -1.660156 -0.734375 -1.800781 -1.171875 -2.03125 C -1.617188 -2.269531 -2.007812 -2.578125 -2.34375 -2.953125 C -2.6875 -3.328125 -2.945312 -3.742188 -3.125 -4.203125 C -3.3125 -4.660156 -3.398438 -5.144531 -3.390625 -5.65625 C -3.390625 -6.164062 -3.269531 -6.675781 -3.03125 -7.1875 C -2.789062 -7.695312 -2.414062 -8.1875 -1.90625 -8.65625 Z M 3.203125 -2.984375 C 3.660156 -3.390625 3.957031 -3.835938 4.09375 -4.328125 C 4.238281 -4.816406 4.257812 -5.3125 4.15625 -5.8125 C 4.0625 -6.3125 3.867188 -6.785156 3.578125 -7.234375 C 3.285156 -7.679688 2.929688 -8.070312 2.515625 -8.40625 C 2.109375 -8.738281 1.660156 -8.976562 1.171875 -9.125 C 0.679688 -9.28125 0.1875 -9.3125 -0.3125 -9.21875 C -0.8125 -9.132812 -1.289062 -8.890625 -1.75 -8.484375 C -2.195312 -8.078125 -2.488281 -7.625 -2.625 -7.125 C -2.769531 -6.632812 -2.789062 -6.140625 -2.6875 -5.640625 C -2.59375 -5.148438 -2.398438 -4.675781 -2.109375 -4.21875 C -1.828125 -3.757812 -1.476562 -3.367188 -1.0625 -3.046875 C -0.644531 -2.722656 -0.191406 -2.484375 0.296875 -2.328125 C 0.785156 -2.171875 1.28125 -2.140625 1.78125 -2.234375 C 2.28125 -2.328125 2.753906 -2.578125 3.203125 -2.984375 Z M 1.15625 -6.234375 C 1.21875 -6.242188 1.257812 -6.234375 1.28125 -6.203125 C 1.300781 -6.179688 1.300781 -6.148438 1.28125 -6.109375 C 1.25 -6.046875 1.203125 -5.976562 1.140625 -5.90625 C 1.078125 -5.84375 1.046875 -5.785156 1.046875 -5.734375 C 1.035156 -5.660156 1.054688 -5.585938 1.109375 -5.515625 C 1.171875 -5.453125 1.207031 -5.390625 1.21875 -5.328125 C 1.25 -5.253906 1.25 -5.203125 1.21875 -5.171875 C 1.1875 -5.148438 1.144531 -5.160156 1.09375 -5.203125 C 1.039062 -5.234375 0.984375 -5.28125 0.921875 -5.34375 C 0.859375 -5.40625 0.789062 -5.4375 0.71875 -5.4375 C 0.65625 -5.4375 0.59375 -5.40625 0.53125 -5.34375 C 0.46875 -5.289062 0.398438 -5.257812 0.328125 -5.25 C 0.265625 -5.21875 0.21875 -5.21875 0.1875 -5.25 C 0.164062 -5.28125 0.171875 -5.320312 0.203125 -5.375 C 0.234375 -5.4375 0.28125 -5.5 0.34375 -5.5625 C 0.40625 -5.625 0.4375 -5.679688 0.4375 -5.734375 C 0.4375 -5.796875 0.40625 -5.863281 0.34375 -5.9375 C 0.289062 -6.007812 0.253906 -6.078125 0.234375 -6.140625 C 0.222656 -6.203125 0.234375 -6.242188 0.265625 -6.265625 C 0.296875 -6.296875 0.328125 -6.296875 0.359375 -6.265625 C 0.429688 -6.242188 0.5 -6.195312 0.5625 -6.125 C 0.625 -6.0625 0.679688 -6.03125 0.734375 -6.03125 C 0.804688 -6.03125 0.878906 -6.0625 0.953125 -6.125 C 1.023438 -6.1875 1.09375 -6.222656 1.15625 -6.234375 Z M 1.15625 -6.234375 "/></g></g></g><g fill="#262728" fill-opacity="1"><g transform="translate(250.331591, 250.527898)"><g><path d="M -3.265625 -7.796875 C -2.898438 -8.222656 -2.484375 -8.566406 -2.015625 -8.828125 C -1.554688 -9.085938 -1.085938 -9.210938 -0.609375 -9.203125 C -0.128906 -9.191406 0.316406 -9.007812 0.734375 -8.65625 C 1.140625 -8.3125 1.390625 -7.925781 1.484375 -7.5 C 1.578125 -7.070312 1.5625 -6.632812 1.4375 -6.1875 C 1.3125 -5.738281 1.117188 -5.304688 0.859375 -4.890625 C 0.597656 -4.484375 0.3125 -4.132812 0 -3.84375 L -0.203125 -3.578125 C -0.273438 -3.503906 -0.34375 -3.492188 -0.40625 -3.546875 C -0.476562 -3.609375 -0.472656 -3.671875 -0.390625 -3.734375 C -0.328125 -3.804688 -0.289062 -3.835938 -0.28125 -3.828125 C -0.269531 -3.828125 -0.234375 -3.859375 -0.171875 -3.921875 C 0.203125 -4.378906 0.476562 -4.847656 0.65625 -5.328125 C 0.84375 -5.804688 0.890625 -6.265625 0.796875 -6.703125 C 0.710938 -7.148438 0.476562 -7.535156 0.09375 -7.859375 C -0.5 -8.359375 -1.113281 -8.507812 -1.75 -8.3125 C -2.394531 -8.125 -3.035156 -7.65625 -3.671875 -6.90625 C -3.753906 -6.8125 -3.8125 -6.742188 -3.84375 -6.703125 C -3.875 -6.660156 -3.90625 -6.625 -3.9375 -6.59375 L -3.90625 -6.625 C -4.007812 -6.5 -4.066406 -6.375 -4.078125 -6.25 C -4.097656 -6.132812 -4.03125 -6.007812 -3.875 -5.875 L 0.671875 -2.03125 C 0.828125 -1.894531 0.957031 -1.828125 1.0625 -1.828125 C 1.164062 -1.828125 1.257812 -1.867188 1.34375 -1.953125 C 1.425781 -2.046875 1.519531 -2.132812 1.625 -2.21875 C 1.664062 -2.257812 1.707031 -2.253906 1.75 -2.203125 C 1.800781 -2.148438 1.804688 -2.101562 1.765625 -2.0625 L 0.234375 -0.25 C 0.203125 -0.207031 0.15625 -0.207031 0.09375 -0.25 C 0.0390625 -0.289062 0.0351562 -0.335938 0.078125 -0.390625 C 0.148438 -0.515625 0.21875 -0.617188 0.28125 -0.703125 C 0.351562 -0.796875 0.378906 -0.890625 0.359375 -0.984375 C 0.335938 -1.085938 0.25 -1.207031 0.09375 -1.34375 L -4.4375 -5.171875 C -4.601562 -5.316406 -4.734375 -5.382812 -4.828125 -5.375 C -4.921875 -5.375 -5.007812 -5.332031 -5.09375 -5.25 C -5.175781 -5.175781 -5.269531 -5.09375 -5.375 -5 C -5.4375 -4.957031 -5.484375 -4.957031 -5.515625 -5 C -5.554688 -5.039062 -5.5625 -5.082031 -5.53125 -5.125 Z M -3.265625 -7.796875 "/></g></g></g><g fill="#262728" fill-opacity="1"><g transform="translate(256.979763, 242.349864)"><g><path d="M 2.359375 -6.09375 C 2.316406 -6.144531 2.3125 -6.191406 2.34375 -6.234375 C 2.382812 -6.285156 2.425781 -6.296875 2.46875 -6.265625 L 3.484375 -5.53125 C 3.523438 -5.507812 3.53125 -5.472656 3.5 -5.421875 L 0.140625 -0.3125 C 0.109375 -0.257812 0.0664062 -0.25 0.015625 -0.28125 C -0.0351562 -0.3125 -0.046875 -0.359375 -0.015625 -0.421875 C 0.0351562 -0.546875 0.0820312 -0.660156 0.125 -0.765625 C 0.175781 -0.867188 0.191406 -0.96875 0.171875 -1.0625 C 0.148438 -1.15625 0.0507812 -1.257812 -0.125 -1.375 L -5.078125 -4.640625 C -5.253906 -4.753906 -5.390625 -4.800781 -5.484375 -4.78125 C -5.578125 -4.757812 -5.660156 -4.703125 -5.734375 -4.609375 C -5.804688 -4.523438 -5.882812 -4.429688 -5.96875 -4.328125 C -6.019531 -4.296875 -6.066406 -4.296875 -6.109375 -4.328125 C -6.160156 -4.359375 -6.171875 -4.398438 -6.140625 -4.453125 L -2.921875 -9.34375 C -2.898438 -9.382812 -2.878906 -9.394531 -2.859375 -9.375 L -1.75 -8.734375 C -1.707031 -8.710938 -1.703125 -8.671875 -1.734375 -8.609375 C -1.765625 -8.546875 -1.804688 -8.523438 -1.859375 -8.546875 C -2.109375 -8.640625 -2.328125 -8.679688 -2.515625 -8.671875 C -2.703125 -8.671875 -2.890625 -8.59375 -3.078125 -8.4375 C -3.265625 -8.28125 -3.472656 -8.03125 -3.703125 -7.6875 L -4.71875 -6.109375 C -4.8125 -5.984375 -4.859375 -5.859375 -4.859375 -5.734375 C -4.859375 -5.609375 -4.769531 -5.488281 -4.59375 -5.375 L -2.078125 -3.71875 L -0.765625 -5.71875 C -0.554688 -6.03125 -0.484375 -6.28125 -0.546875 -6.46875 C -0.617188 -6.65625 -0.726562 -6.800781 -0.875 -6.90625 C -0.925781 -6.945312 -0.929688 -6.992188 -0.890625 -7.046875 C -0.859375 -7.109375 -0.816406 -7.117188 -0.765625 -7.078125 L 0.703125 -6.109375 C 0.742188 -6.085938 0.75 -6.046875 0.71875 -5.984375 C 0.6875 -5.921875 0.644531 -5.90625 0.59375 -5.9375 C 0.445312 -6.03125 0.269531 -6.070312 0.0625 -6.0625 C -0.132812 -6.050781 -0.335938 -5.890625 -0.546875 -5.578125 L -1.859375 -3.578125 L 0.390625 -2.09375 C 0.535156 -2 0.660156 -1.96875 0.765625 -2 C 0.878906 -2.03125 0.972656 -2.097656 1.046875 -2.203125 L 2.359375 -4.1875 C 2.585938 -4.539062 2.734375 -4.820312 2.796875 -5.03125 C 2.859375 -5.238281 2.847656 -5.421875 2.765625 -5.578125 C 2.679688 -5.734375 2.546875 -5.90625 2.359375 -6.09375 Z M 2.359375 -6.09375 "/></g></g></g><g fill="#262728" fill-opacity="1"><g transform="translate(262.379043, 233.852402)"><g><path d="M 0.8125 -7.671875 C 0.894531 -7.835938 1.007812 -7.921875 1.15625 -7.921875 C 1.3125 -7.929688 1.46875 -7.898438 1.625 -7.828125 C 1.789062 -7.765625 1.914062 -7.707031 2 -7.65625 C 2.257812 -7.53125 2.484375 -7.363281 2.671875 -7.15625 C 2.859375 -6.957031 2.976562 -6.726562 3.03125 -6.46875 C 3.082031 -6.207031 3.03125 -5.921875 2.875 -5.609375 C 2.726562 -5.316406 2.523438 -5.097656 2.265625 -4.953125 C 2.015625 -4.804688 1.726562 -4.691406 1.40625 -4.609375 C 1.082031 -4.535156 0.757812 -4.457031 0.4375 -4.375 C 0.113281 -4.289062 -0.175781 -4.179688 -0.4375 -4.046875 C -0.707031 -3.910156 -0.914062 -3.707031 -1.0625 -3.4375 C -1.101562 -3.332031 -1.164062 -3.300781 -1.25 -3.34375 C -1.332031 -3.382812 -1.34375 -3.453125 -1.28125 -3.546875 C -1.238281 -3.609375 -1.207031 -3.640625 -1.1875 -3.640625 C -1.175781 -3.648438 -1.148438 -3.695312 -1.109375 -3.78125 C -0.847656 -4.3125 -0.691406 -4.832031 -0.640625 -5.34375 C -0.585938 -5.851562 -0.65625 -6.304688 -0.84375 -6.703125 C -1.039062 -7.109375 -1.367188 -7.425781 -1.828125 -7.65625 C -2.515625 -8 -3.144531 -7.992188 -3.71875 -7.640625 C -4.300781 -7.285156 -4.804688 -6.671875 -5.234375 -5.796875 C -5.285156 -5.691406 -5.320312 -5.613281 -5.34375 -5.5625 C -5.375 -5.519531 -5.394531 -5.484375 -5.40625 -5.453125 L -5.390625 -5.46875 C -5.460938 -5.332031 -5.488281 -5.203125 -5.46875 -5.078125 C -5.457031 -4.960938 -5.363281 -4.859375 -5.1875 -4.765625 L 0.15625 -2.140625 C 0.34375 -2.046875 0.488281 -2.007812 0.59375 -2.03125 C 0.695312 -2.0625 0.773438 -2.125 0.828125 -2.21875 C 0.890625 -2.320312 0.957031 -2.425781 1.03125 -2.53125 C 1.0625 -2.570312 1.109375 -2.578125 1.171875 -2.546875 C 1.234375 -2.523438 1.25 -2.488281 1.21875 -2.4375 L 0.171875 -0.3125 C 0.140625 -0.25 0.09375 -0.226562 0.03125 -0.25 C -0.03125 -0.28125 -0.046875 -0.328125 -0.015625 -0.390625 C 0.015625 -0.523438 0.0507812 -0.640625 0.09375 -0.734375 C 0.144531 -0.835938 0.148438 -0.941406 0.109375 -1.046875 C 0.0664062 -1.148438 -0.046875 -1.25 -0.234375 -1.34375 L -5.5625 -3.953125 C -5.75 -4.054688 -5.890625 -4.085938 -5.984375 -4.046875 C -6.078125 -4.003906 -6.15625 -3.9375 -6.21875 -3.84375 C -6.289062 -3.757812 -6.359375 -3.660156 -6.421875 -3.546875 C -6.472656 -3.492188 -6.519531 -3.476562 -6.5625 -3.5 C -6.613281 -3.53125 -6.625 -3.578125 -6.59375 -3.640625 L -5.0625 -6.765625 C -4.800781 -7.273438 -4.476562 -7.707031 -4.09375 -8.0625 C -3.707031 -8.425781 -3.28125 -8.660156 -2.8125 -8.765625 C -2.351562 -8.878906 -1.878906 -8.8125 -1.390625 -8.5625 C -1.015625 -8.382812 -0.726562 -8.148438 -0.53125 -7.859375 C -0.332031 -7.566406 -0.207031 -7.242188 -0.15625 -6.890625 C -0.101562 -6.535156 -0.101562 -6.171875 -0.15625 -5.796875 C -0.21875 -5.429688 -0.320312 -5.070312 -0.46875 -4.71875 C -0.289062 -4.914062 -0.09375 -5.0625 0.125 -5.15625 C 0.34375 -5.25 0.566406 -5.320312 0.796875 -5.375 C 1.035156 -5.425781 1.265625 -5.476562 1.484375 -5.53125 C 1.710938 -5.59375 1.910156 -5.675781 2.078125 -5.78125 C 2.253906 -5.882812 2.394531 -6.039062 2.5 -6.25 C 2.582031 -6.4375 2.597656 -6.617188 2.546875 -6.796875 C 2.492188 -6.972656 2.394531 -7.109375 2.25 -7.203125 C 2.101562 -7.296875 1.953125 -7.320312 1.796875 -7.28125 C 1.628906 -7.238281 1.476562 -7.191406 1.34375 -7.140625 C 1.21875 -7.097656 1.097656 -7.109375 0.984375 -7.171875 C 0.878906 -7.210938 0.8125 -7.28125 0.78125 -7.375 C 0.757812 -7.476562 0.769531 -7.578125 0.8125 -7.671875 Z M 0.8125 -7.671875 "/></g></g></g></svg>